<svg xmlns="http://www.w3.org/2000/svg" width="176.542" height="159.478" viewBox="0 0 176.542 159.478">
  <g id="Group_181" data-name="Group 181" transform="translate(-5.88 -10.08)">
    <g id="Group_166" data-name="Group 166" transform="translate(5.88 10.08)">
      <g id="Group_135" data-name="Group 135" transform="translate(0 4.777)">
        <rect id="Rectangle_80" data-name="Rectangle 80" width="176.542" height="154.701" rx="11.183" fill="#f4f4f4"/>
        <g id="Group_134" data-name="Group 134" transform="translate(0 0)" style="mix-blend-mode: multiply;isolation: isolate">
          <path id="Path_46" data-name="Path 46" d="M16.979,16.127h0c-.109,0-.214.009-.322.013C16.764,16.136,16.87,16.127,16.979,16.127Z" transform="translate(-8.143 -16.127)" fill="#f4f4f4"/>
          <path id="Path_47" data-name="Path 47" d="M174.491,16.172c4.446.27,7.846,2.516,7.753,5.241L179.854,163.3c-.093,2.746-4,4.967-8.73,4.967H17.179c-4.728,0-8.637-2.222-8.731-4.967L6.06,21.413c-.093-2.725,3.307-4.971,7.753-5.241-4.455.27-7.932,2.519-7.932,5.252V165.558c0,2.915,3.955,5.279,8.835,5.279H173.588c4.88,0,8.835-2.364,8.835-5.279V21.424C182.423,18.691,178.946,16.442,174.491,16.172Z" transform="translate(-5.881 -16.136)" fill="#f4f4f4"/>
        </g>
        <path id="Rectangle_81" data-name="Rectangle 81" d="M11.183,0H165.359a11.183,11.183,0,0,1,11.183,11.183V44.072a0,0,0,0,1,0,0H0a0,0,0,0,1,0,0V11.183A11.183,11.183,0,0,1,11.183,0Z" fill="#8eb197"/>
      </g>
      <g id="Group_161" data-name="Group 161" transform="translate(21.444)">
        <g id="Group_139" data-name="Group 139">
          <g id="Group_137" data-name="Group 137" transform="translate(1.151 4.798)" style="mix-blend-mode: multiply;isolation: isolate">
            <path id="Path_50" data-name="Path 50" d="M34.48,16.153v5.72c0,1.3,1.354,2.366,3.009,2.366S40.5,23.174,40.5,21.873v-5.72Z" transform="translate(-34.48 -16.153)" fill="#ed4f4f"/>
          </g>
          <g id="Group_138" data-name="Group 138">
            <rect id="Rectangle_82" data-name="Rectangle 82" width="6.016" height="12.884" rx="3.008" transform="translate(0 0)" fill="#6d6d6d"/>
            <path id="Path_51" data-name="Path 51" d="M36.643,10.08a3.748,3.748,0,0,0-.706.073,3.345,3.345,0,0,1,1.206.484c.043.028.087.054.128.083a2.742,2.742,0,0,1,.213.179c.053.047.1.094.152.145s.1.116.152.177a2.265,2.265,0,0,1,.138.2,1.859,1.859,0,0,1,.1.171,1.892,1.892,0,0,1,.105.264c.017.05.038.1.05.148a1.835,1.835,0,0,1,.057.442V20.6a1.835,1.835,0,0,1-.057.442c-.012.051-.033.1-.05.148a1.892,1.892,0,0,1-.105.264,1.86,1.86,0,0,1-.1.171,2.264,2.264,0,0,1-.138.2c-.048.061-.1.12-.152.177s-.1.1-.152.145c-.069.062-.137.122-.213.178-.041.029-.085.055-.128.083a3.345,3.345,0,0,1-1.206.484,3.748,3.748,0,0,0,.706.073c1.654,0,3.008-1.065,3.008-2.366V12.446C39.651,11.145,38.3,10.08,36.643,10.08Z" transform="translate(-33.635 -10.08)" fill="#6d6d6d" opacity="0.6" style="mix-blend-mode: multiply;isolation: isolate"/>
          </g>
        </g>
        <g id="Group_142" data-name="Group 142" transform="translate(18.07)">
          <g id="Group_140" data-name="Group 140" transform="translate(1.151 4.798)" style="mix-blend-mode: multiply;isolation: isolate">
            <path id="Path_52" data-name="Path 52" d="M57.352,16.153v5.72c0,1.3,1.353,2.366,3.008,2.366s3.009-1.065,3.009-2.366v-5.72Z" transform="translate(-57.352 -16.153)" fill="#ed4f4f"/>
          </g>
          <g id="Group_141" data-name="Group 141">
            <path id="Path_53" data-name="Path 53" d="M58.9,22.964h0c-1.654,0-3.008-1.065-3.008-2.366V12.446c0-1.3,1.353-2.366,3.008-2.366h0c1.654,0,3.009,1.065,3.009,2.366V20.6C61.911,21.9,60.557,22.964,58.9,22.964Z" transform="translate(-55.895 -10.08)" fill="#6d6d6d"/>
            <path id="Path_54" data-name="Path 54" d="M59.514,10.08a3.749,3.749,0,0,0-.706.073,3.355,3.355,0,0,1,1.206.484c.043.028.087.054.127.083a2.614,2.614,0,0,1,.214.179c.052.047.1.094.152.145a2.285,2.285,0,0,1,.152.177,2.117,2.117,0,0,1,.139.2c.035.056.07.112.1.171a2,2,0,0,1,.105.264c.016.05.037.1.05.148a1.876,1.876,0,0,1,.057.442V20.6a1.876,1.876,0,0,1-.057.442c-.013.051-.034.1-.05.148a2,2,0,0,1-.105.264c-.029.059-.065.115-.1.171a2.117,2.117,0,0,1-.139.2,2.285,2.285,0,0,1-.152.177c-.048.051-.1.1-.152.145a2.776,2.776,0,0,1-.214.178c-.04.029-.085.055-.127.083a3.355,3.355,0,0,1-1.206.484,3.749,3.749,0,0,0,.706.073c1.654,0,3.008-1.065,3.008-2.366V12.446C62.523,11.145,61.169,10.08,59.514,10.08Z" transform="translate(-56.507 -10.08)" fill="#6d6d6d" opacity="0.6" style="mix-blend-mode: multiply;isolation: isolate"/>
          </g>
        </g>
        <g id="Group_145" data-name="Group 145" transform="translate(36.139)">
          <g id="Group_143" data-name="Group 143" transform="translate(1.151 4.798)" style="mix-blend-mode: multiply;isolation: isolate">
            <path id="Path_55" data-name="Path 55" d="M80.223,16.153v5.72c0,1.3,1.353,2.366,3.008,2.366s3.008-1.065,3.008-2.366v-5.72Z" transform="translate(-80.223 -16.153)" fill="#ed4f4f"/>
          </g>
          <g id="Group_144" data-name="Group 144">
            <path id="Path_56" data-name="Path 56" d="M81.774,22.964h0c-1.655,0-3.008-1.065-3.008-2.366V12.446c0-1.3,1.353-2.366,3.008-2.366h0c1.654,0,3.008,1.065,3.008,2.366V20.6C84.782,21.9,83.429,22.964,81.774,22.964Z" transform="translate(-78.766 -10.08)" fill="#6d6d6d"/>
            <path id="Path_57" data-name="Path 57" d="M82.386,10.08a3.748,3.748,0,0,0-.706.073,3.345,3.345,0,0,1,1.206.484c.043.028.087.054.127.083a2.616,2.616,0,0,1,.214.179c.053.047.1.094.152.145s.1.116.152.177a2.265,2.265,0,0,1,.138.2,1.858,1.858,0,0,1,.1.171,1.893,1.893,0,0,1,.105.264c.017.05.037.1.05.148a1.836,1.836,0,0,1,.057.442V20.6a1.836,1.836,0,0,1-.057.442c-.013.051-.033.1-.05.148a1.894,1.894,0,0,1-.105.264,1.858,1.858,0,0,1-.1.171,2.265,2.265,0,0,1-.138.2c-.048.061-.1.12-.152.177s-.1.1-.152.145a2.778,2.778,0,0,1-.214.178c-.04.029-.085.055-.127.083a3.345,3.345,0,0,1-1.206.484,3.748,3.748,0,0,0,.706.073c1.654,0,3.008-1.065,3.008-2.366V12.446C85.394,11.145,84.041,10.08,82.386,10.08Z" transform="translate(-79.378 -10.08)" fill="#6d6d6d" opacity="0.6" style="mix-blend-mode: multiply;isolation: isolate"/>
          </g>
        </g>
        <g id="Group_148" data-name="Group 148" transform="translate(54.209)">
          <g id="Group_146" data-name="Group 146" transform="translate(1.151 4.798)" style="mix-blend-mode: multiply;isolation: isolate">
            <path id="Path_58" data-name="Path 58" d="M103.1,16.153v5.72c0,1.3,1.353,2.366,3.008,2.366s3.008-1.065,3.008-2.366v-5.72Z" transform="translate(-103.095 -16.153)" fill="#ed4f4f"/>
          </g>
          <g id="Group_147" data-name="Group 147">
            <path id="Path_59" data-name="Path 59" d="M104.646,22.964h0c-1.654,0-3.008-1.065-3.008-2.366V12.446c0-1.3,1.353-2.366,3.008-2.366h0c1.654,0,3.008,1.065,3.008,2.366V20.6C107.654,21.9,106.3,22.964,104.646,22.964Z" transform="translate(-101.638 -10.08)" fill="#6d6d6d"/>
            <path id="Path_60" data-name="Path 60" d="M105.257,10.08a3.748,3.748,0,0,0-.706.073,3.355,3.355,0,0,1,1.206.484c.043.028.087.054.127.083a2.614,2.614,0,0,1,.214.179c.052.047.1.094.152.145s.1.116.152.177a2.267,2.267,0,0,1,.138.2c.036.056.07.112.1.171a1.888,1.888,0,0,1,.1.264c.017.05.038.1.05.148a1.836,1.836,0,0,1,.058.442V20.6a1.836,1.836,0,0,1-.058.442c-.012.051-.033.1-.05.148a1.889,1.889,0,0,1-.1.264c-.03.059-.065.115-.1.171a2.267,2.267,0,0,1-.138.2c-.048.061-.1.12-.152.177s-.1.1-.152.145a2.776,2.776,0,0,1-.214.178c-.04.029-.085.055-.127.083a3.355,3.355,0,0,1-1.206.484,3.748,3.748,0,0,0,.706.073c1.654,0,3.008-1.065,3.008-2.366V12.446C108.266,11.145,106.912,10.08,105.257,10.08Z" transform="translate(-102.25 -10.08)" fill="#6d6d6d" opacity="0.6" style="mix-blend-mode: multiply;isolation: isolate"/>
          </g>
        </g>
        <g id="Group_151" data-name="Group 151" transform="translate(72.278)">
          <g id="Group_149" data-name="Group 149" transform="translate(1.151 4.798)" style="mix-blend-mode: multiply;isolation: isolate">
            <path id="Path_61" data-name="Path 61" d="M125.966,16.153v5.72c0,1.3,1.353,2.366,3.008,2.366s3.008-1.065,3.008-2.366v-5.72Z" transform="translate(-125.966 -16.153)" fill="#ed4f4f"/>
          </g>
          <g id="Group_150" data-name="Group 150">
            <path id="Path_62" data-name="Path 62" d="M127.518,22.964h0c-1.655,0-3.008-1.065-3.008-2.366V12.446c0-1.3,1.353-2.366,3.008-2.366h0c1.654,0,3.008,1.065,3.008,2.366V20.6C130.525,21.9,129.172,22.964,127.518,22.964Z" transform="translate(-124.509 -10.08)" fill="#6d6d6d"/>
            <path id="Path_63" data-name="Path 63" d="M128.129,10.08a3.749,3.749,0,0,0-.706.073,3.345,3.345,0,0,1,1.206.484c.043.028.087.054.127.083a2.612,2.612,0,0,1,.214.179c.053.047.1.094.152.145s.105.116.153.177a2.264,2.264,0,0,1,.138.2c.035.056.07.112.1.171a2,2,0,0,1,.105.264c.016.05.037.1.05.148a1.877,1.877,0,0,1,.057.442V20.6a1.877,1.877,0,0,1-.057.442c-.013.051-.034.1-.05.148a2,2,0,0,1-.105.264c-.029.059-.065.115-.1.171a2.264,2.264,0,0,1-.138.2c-.048.061-.1.12-.153.177s-.1.1-.152.145a2.773,2.773,0,0,1-.214.178c-.04.029-.085.055-.127.083a3.345,3.345,0,0,1-1.206.484,3.749,3.749,0,0,0,.706.073c1.654,0,3.008-1.065,3.008-2.366V12.446C131.137,11.145,129.784,10.08,128.129,10.08Z" transform="translate(-125.121 -10.08)" fill="#6d6d6d" opacity="0.6" style="mix-blend-mode: multiply;isolation: isolate"/>
          </g>
        </g>
        <g id="Group_154" data-name="Group 154" transform="translate(90.348)">
          <g id="Group_152" data-name="Group 152" transform="translate(1.15 4.798)" style="mix-blend-mode: multiply;isolation: isolate">
            <path id="Path_64" data-name="Path 64" d="M148.837,16.153v5.72c0,1.3,1.354,2.366,3.008,2.366s3.008-1.065,3.008-2.366v-5.72Z" transform="translate(-148.837 -16.153)" fill="#ed4f4f"/>
          </g>
          <g id="Group_153" data-name="Group 153">
            <path id="Path_65" data-name="Path 65" d="M150.389,22.964h0c-1.654,0-3.008-1.065-3.008-2.366V12.446c0-1.3,1.353-2.366,3.008-2.366h0c1.654,0,3.008,1.065,3.008,2.366V20.6C153.4,21.9,152.043,22.964,150.389,22.964Z" transform="translate(-147.381 -10.08)" fill="#6d6d6d"/>
            <path id="Path_66" data-name="Path 66" d="M151,10.08a3.748,3.748,0,0,0-.706.073,3.355,3.355,0,0,1,1.206.484c.042.028.087.054.127.083a2.755,2.755,0,0,1,.214.179c.052.047.1.094.152.145s.1.116.152.177.1.132.139.2.07.112.1.171a1.991,1.991,0,0,1,.1.264c.017.05.038.1.05.148a1.836,1.836,0,0,1,.058.442V20.6a1.836,1.836,0,0,1-.058.442c-.012.051-.033.1-.05.148a1.992,1.992,0,0,1-.1.264c-.03.059-.065.115-.1.171s-.088.136-.139.2-.1.12-.152.177-.1.1-.152.145c-.069.062-.138.122-.214.178-.04.029-.085.055-.127.083a3.355,3.355,0,0,1-1.206.484,3.749,3.749,0,0,0,.706.073c1.654,0,3.008-1.065,3.008-2.366V12.446C154.008,11.145,152.655,10.08,151,10.08Z" transform="translate(-147.993 -10.08)" fill="#6d6d6d" opacity="0.6" style="mix-blend-mode: multiply;isolation: isolate"/>
          </g>
        </g>
        <g id="Group_157" data-name="Group 157" transform="translate(108.417)">
          <g id="Group_155" data-name="Group 155" transform="translate(1.151 4.798)" style="mix-blend-mode: multiply;isolation: isolate">
            <path id="Path_67" data-name="Path 67" d="M171.709,16.153v5.72c0,1.3,1.353,2.366,3.008,2.366s3.008-1.065,3.008-2.366v-5.72Z" transform="translate(-171.709 -16.153)" fill="#ed4f4f"/>
          </g>
          <g id="Group_156" data-name="Group 156">
            <path id="Path_68" data-name="Path 68" d="M173.26,22.964h0c-1.654,0-3.008-1.065-3.008-2.366V12.446c0-1.3,1.353-2.366,3.008-2.366h0c1.655,0,3.008,1.065,3.008,2.366V20.6C176.268,21.9,174.915,22.964,173.26,22.964Z" transform="translate(-170.252 -10.08)" fill="#6d6d6d"/>
            <path id="Path_69" data-name="Path 69" d="M173.872,10.08a3.74,3.74,0,0,0-.706.073,3.351,3.351,0,0,1,1.206.484c.043.028.087.054.127.083a2.614,2.614,0,0,1,.214.179c.053.047.1.094.152.145s.105.116.153.177a2.264,2.264,0,0,1,.138.2c.035.056.07.112.1.171a1.991,1.991,0,0,1,.105.264c.017.05.037.1.05.148a1.876,1.876,0,0,1,.057.442V20.6a1.876,1.876,0,0,1-.057.442c-.013.051-.033.1-.05.148a1.992,1.992,0,0,1-.105.264c-.029.059-.065.115-.1.171a2.263,2.263,0,0,1-.138.2c-.048.061-.1.12-.153.177s-.1.1-.152.145a2.776,2.776,0,0,1-.214.178c-.04.029-.085.055-.127.083a3.351,3.351,0,0,1-1.206.484,3.74,3.74,0,0,0,.706.073c1.655,0,3.009-1.065,3.009-2.366V12.446C176.88,11.145,175.527,10.08,173.872,10.08Z" transform="translate(-170.864 -10.08)" fill="#6d6d6d" opacity="0.6" style="mix-blend-mode: multiply;isolation: isolate"/>
          </g>
        </g>
        <g id="Group_160" data-name="Group 160" transform="translate(126.487)">
          <g id="Group_158" data-name="Group 158" transform="translate(1.151 4.798)" style="mix-blend-mode: multiply;isolation: isolate">
            <path id="Path_70" data-name="Path 70" d="M194.581,16.153v5.72c0,1.3,1.353,2.366,3.008,2.366s3.008-1.065,3.008-2.366v-5.72Z" transform="translate(-194.581 -16.153)" fill="#ed4f4f"/>
          </g>
          <g id="Group_159" data-name="Group 159">
            <path id="Path_71" data-name="Path 71" d="M196.132,22.964h0c-1.654,0-3.008-1.065-3.008-2.366V12.446c0-1.3,1.353-2.366,3.008-2.366h0c1.654,0,3.008,1.065,3.008,2.366V20.6C199.139,21.9,197.786,22.964,196.132,22.964Z" transform="translate(-193.124 -10.08)" fill="#6d6d6d"/>
            <path id="Path_72" data-name="Path 72" d="M196.743,10.08a3.748,3.748,0,0,0-.706.073,3.355,3.355,0,0,1,1.206.484c.043.028.087.054.127.083a2.761,2.761,0,0,1,.214.179c.052.047.1.094.152.145s.1.116.152.177.1.132.139.2.07.112.1.171a1.991,1.991,0,0,1,.1.264c.017.05.038.1.05.148a1.836,1.836,0,0,1,.058.442V20.6a1.836,1.836,0,0,1-.058.442c-.012.051-.033.1-.05.148a1.991,1.991,0,0,1-.1.264c-.03.059-.065.115-.1.171s-.088.136-.139.2-.1.12-.152.177-.1.1-.152.145c-.069.062-.138.122-.214.178-.04.029-.085.055-.127.083a3.355,3.355,0,0,1-1.206.484,3.748,3.748,0,0,0,.706.073c1.654,0,3.008-1.065,3.008-2.366V12.446C199.751,11.145,198.4,10.08,196.743,10.08Z" transform="translate(-193.736 -10.08)" fill="#6d6d6d" opacity="0.6" style="mix-blend-mode: multiply;isolation: isolate"/>
          </g>
        </g>
      </g>
    </g>
  </g>
</svg>
