<svg id="Group_1216" data-name="Group 1216" xmlns="http://www.w3.org/2000/svg" xmlns:xlink="http://www.w3.org/1999/xlink" width="1920" height="1080" viewBox="0 0 1920 1080">
  <defs>
    <clipPath id="clip-path">
      <rect id="Rectangle_204" data-name="Rectangle 204" width="1920" height="417.472" transform="translate(0 372.658)" fill="none"/>
    </clipPath>
    <clipPath id="clip-path-2">
      <rect id="Rectangle_241" data-name="Rectangle 241" width="1920" height="151.267" fill="none"/>
    </clipPath>
    <clipPath id="clip-path-3">
      <rect id="Rectangle_255" data-name="Rectangle 255" width="1920" height="500.975" transform="translate(0 579.025)" fill="none"/>
    </clipPath>
  </defs>
  <g id="Group_1200" data-name="Group 1200">
    <rect id="Rectangle_191" data-name="Rectangle 191" width="1920" height="1080" fill="#ffeec7"/>
    <g id="Group_1199" data-name="Group 1199" opacity="0.36" style="mix-blend-mode: multiply;isolation: isolate">
      <rect id="Rectangle_192" data-name="Rectangle 192" width="101.918" height="809.478" transform="translate(90.233)" fill="#ffbd84"/>
      <rect id="Rectangle_193" data-name="Rectangle 193" width="101.918" height="809.478" transform="translate(324.178)" fill="#ffbd84"/>
      <rect id="Rectangle_194" data-name="Rectangle 194" width="101.918" height="809.478" transform="translate(792.068)" fill="#ffbd84"/>
      <rect id="Rectangle_195" data-name="Rectangle 195" width="101.918" height="809.478" transform="translate(1026.013)" fill="#ffbd84"/>
      <rect id="Rectangle_196" data-name="Rectangle 196" width="101.918" height="809.478" transform="translate(1259.958)" fill="#ffbd84"/>
      <rect id="Rectangle_197" data-name="Rectangle 197" width="101.918" height="809.478" transform="translate(1493.904)" fill="#ffbd84"/>
      <rect id="Rectangle_198" data-name="Rectangle 198" width="101.918" height="809.478" transform="translate(1727.849)" fill="#ffbd84"/>
    </g>
  </g>
  <g id="Group_1205" data-name="Group 1205">
    <g id="Group_1204" data-name="Group 1204" clip-path="url(#clip-path)">
      <g id="Group_1203" data-name="Group 1203">
        <g id="Rectangle_199" data-name="Rectangle 199" transform="translate(-29.798 527.558)" fill="#e37d49" stroke="#4f0c00" stroke-miterlimit="10" stroke-width="0.388">
          <rect width="1987.814" height="180.014" stroke="none"/>
          <rect x="-0.194" y="-0.194" width="1988.202" height="180.402" fill="none"/>
        </g>
        <path id="Path_4363" data-name="Path 4363" d="M1958.016,527.558V624c-131.021,12.852-266.8,3.284-400.358-.453-273.063-7.625-546.74,9.633-819.956,4.061q271.758-37.941,543.514-75.924c58.637-8.187,117.312-16.395,176.141-24.128Z" fill="#803e2e" opacity="0.32" style="mix-blend-mode: multiply;isolation: isolate"/>
        <g id="Rectangle_200" data-name="Rectangle 200" transform="translate(-33.907 560.93)" fill="#f4eedc" stroke="#4f0c00" stroke-linecap="round" stroke-linejoin="round" stroke-width="0.64">
          <rect width="1987.814" height="180.014" stroke="none"/>
          <rect x="-0.32" y="-0.32" width="1988.455" height="180.655" fill="none"/>
        </g>
        <g id="Group_1202" data-name="Group 1202">
          <g id="Group_1201" data-name="Group 1201">
            <g id="Rectangle_201" data-name="Rectangle 201" transform="translate(46.015 583.047)" fill="#ffbd84" stroke="#4f0c00" stroke-miterlimit="10" stroke-width="1">
              <rect width="580.57" height="180.693" stroke="none"/>
              <rect x="-0.5" y="-0.5" width="581.57" height="181.693" fill="none"/>
            </g>
          </g>
          <g id="Rectangle_202" data-name="Rectangle 202" transform="translate(669.715 583.047)" fill="#ffbd84" stroke="#4f0c00" stroke-miterlimit="10" stroke-width="1">
            <rect width="580.57" height="180.693" stroke="none"/>
            <rect x="-0.5" y="-0.5" width="581.57" height="181.693" fill="none"/>
          </g>
          <g id="Rectangle_203" data-name="Rectangle 203" transform="translate(1293.427 583.049)" fill="#ffbd84" stroke="#4f0c00" stroke-miterlimit="10" stroke-width="1">
            <rect width="580.57" height="180.684" stroke="none"/>
            <rect x="-0.5" y="-0.5" width="581.57" height="181.684" fill="none"/>
          </g>
          <path id="Path_4364" data-name="Path 4364" d="M1953.907,560.93V740.945H1874v22.788H1412.851q27.533-10.822,53.607-22.788,24.48-11.211,47.577-23.393c39.629-20.93,76.493-44.41,98.112-72.468,14.9-19.375,21.773-41.278,16.781-62.035a61.873,61.873,0,0,0-10.483-22.119Z" fill="#c56900" opacity="0.26"/>
        </g>
      </g>
    </g>
  </g>
  <g id="Group_1210" data-name="Group 1210">
    <g id="Group_1209" data-name="Group 1209" clip-path="url(#clip-path-2)">
      <g id="Group_1206" data-name="Group 1206">
        <path id="Rectangle_205" data-name="Rectangle 205" d="M0,0H161.3a0,0,0,0,1,0,0V148.424a20.918,20.918,0,0,1-20.918,20.918H20.918A20.918,20.918,0,0,1,0,148.424V0A0,0,0,0,1,0,0Z" transform="translate(-7.807 -44.619)" fill="#ffbd84"/>
        <path id="Rectangle_206" data-name="Rectangle 206" d="M0,0H161.3a0,0,0,0,1,0,0V148.424a20.918,20.918,0,0,1-20.918,20.918H20.918A20.918,20.918,0,0,1,0,148.424V0A0,0,0,0,1,0,0Z" transform="translate(153.494 -44.619)" fill="#ffbd84"/>
        <path id="Rectangle_207" data-name="Rectangle 207" d="M0,0H161.3a0,0,0,0,1,0,0V148.424a20.918,20.918,0,0,1-20.918,20.918H20.918A20.918,20.918,0,0,1,0,148.424V0A0,0,0,0,1,0,0Z" transform="translate(314.796 -44.619)" fill="#ffbd84"/>
        <path id="Rectangle_208" data-name="Rectangle 208" d="M0,0H161.3a0,0,0,0,1,0,0V148.424a20.918,20.918,0,0,1-20.918,20.918H20.918A20.918,20.918,0,0,1,0,148.424V0A0,0,0,0,1,0,0Z" transform="translate(476.097 -44.619)" fill="#ffbd84"/>
        <path id="Rectangle_209" data-name="Rectangle 209" d="M0,0H161.3a0,0,0,0,1,0,0V148.424a20.918,20.918,0,0,1-20.918,20.918H20.918A20.918,20.918,0,0,1,0,148.424V0A0,0,0,0,1,0,0Z" transform="translate(637.398 -44.619)" fill="#ffbd84"/>
        <path id="Rectangle_210" data-name="Rectangle 210" d="M0,0H161.3a0,0,0,0,1,0,0V148.424a20.918,20.918,0,0,1-20.918,20.918H20.918A20.918,20.918,0,0,1,0,148.424V0A0,0,0,0,1,0,0Z" transform="translate(798.699 -44.619)" fill="#ffbd84"/>
        <path id="Rectangle_211" data-name="Rectangle 211" d="M0,0H161.3a0,0,0,0,1,0,0V148.424a20.918,20.918,0,0,1-20.918,20.918H20.918A20.918,20.918,0,0,1,0,148.424V0A0,0,0,0,1,0,0Z" transform="translate(960 -44.619)" fill="#ffbd84"/>
        <path id="Rectangle_212" data-name="Rectangle 212" d="M0,0H161.3a0,0,0,0,1,0,0V148.424a20.918,20.918,0,0,1-20.918,20.918H20.918A20.918,20.918,0,0,1,0,148.424V0A0,0,0,0,1,0,0Z" transform="translate(1121.301 -44.619)" fill="#ffbd84"/>
        <path id="Rectangle_213" data-name="Rectangle 213" d="M0,0H161.3a0,0,0,0,1,0,0V148.424a20.918,20.918,0,0,1-20.918,20.918H20.918A20.918,20.918,0,0,1,0,148.424V0A0,0,0,0,1,0,0Z" transform="translate(1282.602 -44.619)" fill="#ffbd84"/>
        <path id="Rectangle_214" data-name="Rectangle 214" d="M0,0H161.3a0,0,0,0,1,0,0V148.424a20.918,20.918,0,0,1-20.918,20.918H20.918A20.918,20.918,0,0,1,0,148.424V0A0,0,0,0,1,0,0Z" transform="translate(1443.903 -44.619)" fill="#ffbd84"/>
        <path id="Rectangle_215" data-name="Rectangle 215" d="M0,0H161.3a0,0,0,0,1,0,0V148.424a20.918,20.918,0,0,1-20.918,20.918H20.918A20.918,20.918,0,0,1,0,148.424V0A0,0,0,0,1,0,0Z" transform="translate(1605.204 -44.619)" fill="#ffbd84"/>
        <path id="Rectangle_216" data-name="Rectangle 216" d="M0,0H161.3a0,0,0,0,1,0,0V148.424a20.918,20.918,0,0,1-20.918,20.918H20.918A20.918,20.918,0,0,1,0,148.424V0A0,0,0,0,1,0,0Z" transform="translate(1766.505 -44.619)" fill="#ffbd84"/>
      </g>
      <g id="Group_1207" data-name="Group 1207">
        <path id="Rectangle_217" data-name="Rectangle 217" d="M0,0H161.3a0,0,0,0,1,0,0V148.425a20.918,20.918,0,0,1-20.918,20.918H20.918A20.918,20.918,0,0,1,0,148.425V0A0,0,0,0,1,0,0Z" transform="translate(-7.807 -63.712)" fill="#ff5f53" stroke="#4e1600" stroke-miterlimit="10" stroke-width="0.492"/>
        <g id="Rectangle_218" data-name="Rectangle 218" transform="translate(153.494 -63.712)" fill="#f4eedc" stroke="#4f0c00" stroke-linecap="round" stroke-linejoin="round" stroke-width="0.719">
          <path d="M0,0H161.3a0,0,0,0,1,0,0V148.425a20.918,20.918,0,0,1-20.918,20.918H20.918A20.918,20.918,0,0,1,0,148.425V0A0,0,0,0,1,0,0Z" stroke="none"/>
          <path d="M-.36-.36H161.661a0,0,0,0,1,0,0V148.425A21.278,21.278,0,0,1,140.383,169.7H20.918A21.278,21.278,0,0,1-.36,148.425V-.36A0,0,0,0,1-.36-.36Z" fill="none"/>
        </g>
        <path id="Rectangle_219" data-name="Rectangle 219" d="M0,0H161.3a0,0,0,0,1,0,0V148.425a20.918,20.918,0,0,1-20.918,20.918H20.918A20.918,20.918,0,0,1,0,148.425V0A0,0,0,0,1,0,0Z" transform="translate(314.796 -63.712)" fill="#ff5f53" stroke="#4e1600" stroke-miterlimit="10" stroke-width="0.492"/>
        <g id="Rectangle_220" data-name="Rectangle 220" transform="translate(476.097 -63.712)" fill="#f4eedc" stroke="#4f0c00" stroke-linecap="round" stroke-linejoin="round" stroke-width="0.719">
          <path d="M0,0H161.3a0,0,0,0,1,0,0V148.425a20.918,20.918,0,0,1-20.918,20.918H20.918A20.918,20.918,0,0,1,0,148.425V0A0,0,0,0,1,0,0Z" stroke="none"/>
          <path d="M-.36-.36H161.661a0,0,0,0,1,0,0V148.425A21.278,21.278,0,0,1,140.383,169.7H20.918A21.278,21.278,0,0,1-.36,148.425V-.36A0,0,0,0,1-.36-.36Z" fill="none"/>
        </g>
        <path id="Rectangle_221" data-name="Rectangle 221" d="M0,0H161.3a0,0,0,0,1,0,0V148.425a20.918,20.918,0,0,1-20.918,20.918H20.918A20.918,20.918,0,0,1,0,148.425V0A0,0,0,0,1,0,0Z" transform="translate(637.398 -63.712)" fill="#ff5f53" stroke="#4e1600" stroke-miterlimit="10" stroke-width="0.492"/>
        <g id="Rectangle_222" data-name="Rectangle 222" transform="translate(798.699 -63.712)" fill="#f4eedc" stroke="#4f0c00" stroke-linecap="round" stroke-linejoin="round" stroke-width="0.719">
          <path d="M0,0H161.3a0,0,0,0,1,0,0V148.425a20.918,20.918,0,0,1-20.918,20.918H20.918A20.918,20.918,0,0,1,0,148.425V0A0,0,0,0,1,0,0Z" stroke="none"/>
          <path d="M-.36-.36H161.661a0,0,0,0,1,0,0V148.425A21.278,21.278,0,0,1,140.383,169.7H20.918A21.278,21.278,0,0,1-.36,148.425V-.36A0,0,0,0,1-.36-.36Z" fill="none"/>
        </g>
        <path id="Rectangle_223" data-name="Rectangle 223" d="M0,0H161.3a0,0,0,0,1,0,0V148.425a20.918,20.918,0,0,1-20.918,20.918H20.918A20.918,20.918,0,0,1,0,148.425V0A0,0,0,0,1,0,0Z" transform="translate(960 -63.712)" fill="#ff5f53" stroke="#4e1600" stroke-miterlimit="10" stroke-width="0.492"/>
        <g id="Rectangle_224" data-name="Rectangle 224" transform="translate(1121.301 -63.712)" fill="#f4eedc" stroke="#4f0c00" stroke-linecap="round" stroke-linejoin="round" stroke-width="0.719">
          <path d="M0,0H161.3a0,0,0,0,1,0,0V148.425a20.918,20.918,0,0,1-20.918,20.918H20.918A20.918,20.918,0,0,1,0,148.425V0A0,0,0,0,1,0,0Z" stroke="none"/>
          <path d="M-.36-.36H161.661a0,0,0,0,1,0,0V148.425A21.278,21.278,0,0,1,140.383,169.7H20.918A21.278,21.278,0,0,1-.36,148.425V-.36A0,0,0,0,1-.36-.36Z" fill="none"/>
        </g>
        <path id="Rectangle_225" data-name="Rectangle 225" d="M0,0H161.3a0,0,0,0,1,0,0V148.425a20.918,20.918,0,0,1-20.918,20.918H20.918A20.918,20.918,0,0,1,0,148.425V0A0,0,0,0,1,0,0Z" transform="translate(1282.602 -63.712)" fill="#ff5f53" stroke="#4e1600" stroke-miterlimit="10" stroke-width="0.492"/>
        <g id="Rectangle_226" data-name="Rectangle 226" transform="translate(1443.903 -63.712)" fill="#f4eedc" stroke="#4f0c00" stroke-linecap="round" stroke-linejoin="round" stroke-width="0.719">
          <path d="M0,0H161.3a0,0,0,0,1,0,0V148.425a20.918,20.918,0,0,1-20.918,20.918H20.918A20.918,20.918,0,0,1,0,148.425V0A0,0,0,0,1,0,0Z" stroke="none"/>
          <path d="M-.36-.36H161.661a0,0,0,0,1,0,0V148.425A21.278,21.278,0,0,1,140.383,169.7H20.918A21.278,21.278,0,0,1-.36,148.425V-.36A0,0,0,0,1-.36-.36Z" fill="none"/>
        </g>
        <path id="Rectangle_227" data-name="Rectangle 227" d="M0,0H161.3a0,0,0,0,1,0,0V148.425a20.918,20.918,0,0,1-20.918,20.918H20.918A20.918,20.918,0,0,1,0,148.425V0A0,0,0,0,1,0,0Z" transform="translate(1605.204 -63.712)" fill="#ff5f53" stroke="#4e1600" stroke-miterlimit="10" stroke-width="0.492"/>
        <g id="Rectangle_228" data-name="Rectangle 228" transform="translate(1766.505 -63.712)" fill="#f4eedc" stroke="#4f0c00" stroke-linecap="round" stroke-linejoin="round" stroke-width="0.719">
          <path d="M0,0H161.3a0,0,0,0,1,0,0V148.425a20.918,20.918,0,0,1-20.918,20.918H20.918A20.918,20.918,0,0,1,0,148.425V0A0,0,0,0,1,0,0Z" stroke="none"/>
          <path d="M-.36-.36H161.661a0,0,0,0,1,0,0V148.425A21.278,21.278,0,0,1,140.383,169.7H20.918A21.278,21.278,0,0,1-.36,148.425V-.36A0,0,0,0,1-.36-.36Z" fill="none"/>
        </g>
      </g>
      <g id="Group_1208" data-name="Group 1208" opacity="0.1" style="mix-blend-mode: multiply;isolation: isolate">
        <path id="Rectangle_229" data-name="Rectangle 229" d="M0,0H161.3a0,0,0,0,1,0,0V148.424a20.918,20.918,0,0,1-20.918,20.918H20.918A20.918,20.918,0,0,1,0,148.424V0A0,0,0,0,1,0,0Z" transform="translate(-7.807 -84.671)" fill="#ff603f"/>
        <path id="Rectangle_230" data-name="Rectangle 230" d="M0,0H161.3a0,0,0,0,1,0,0V148.424a20.918,20.918,0,0,1-20.918,20.918H20.918A20.918,20.918,0,0,1,0,148.424V0A0,0,0,0,1,0,0Z" transform="translate(153.494 -84.671)" fill="#ff603f"/>
        <path id="Rectangle_231" data-name="Rectangle 231" d="M0,0H161.3a0,0,0,0,1,0,0V148.424a20.918,20.918,0,0,1-20.918,20.918H20.918A20.918,20.918,0,0,1,0,148.424V0A0,0,0,0,1,0,0Z" transform="translate(314.796 -84.671)" fill="#ff603f"/>
        <path id="Rectangle_232" data-name="Rectangle 232" d="M0,0H161.3a0,0,0,0,1,0,0V148.424a20.918,20.918,0,0,1-20.918,20.918H20.918A20.918,20.918,0,0,1,0,148.424V0A0,0,0,0,1,0,0Z" transform="translate(476.097 -84.671)" fill="#ff603f"/>
        <path id="Rectangle_233" data-name="Rectangle 233" d="M0,0H161.3a0,0,0,0,1,0,0V148.424a20.918,20.918,0,0,1-20.918,20.918H20.918A20.918,20.918,0,0,1,0,148.424V0A0,0,0,0,1,0,0Z" transform="translate(637.398 -84.671)" fill="#ff603f"/>
        <path id="Rectangle_234" data-name="Rectangle 234" d="M0,0H161.3a0,0,0,0,1,0,0V148.424a20.918,20.918,0,0,1-20.918,20.918H20.918A20.918,20.918,0,0,1,0,148.424V0A0,0,0,0,1,0,0Z" transform="translate(798.699 -84.671)" fill="#ff603f"/>
        <path id="Rectangle_235" data-name="Rectangle 235" d="M0,0H161.3a0,0,0,0,1,0,0V148.424a20.918,20.918,0,0,1-20.918,20.918H20.918A20.918,20.918,0,0,1,0,148.424V0A0,0,0,0,1,0,0Z" transform="translate(960 -84.671)" fill="#ff603f"/>
        <path id="Rectangle_236" data-name="Rectangle 236" d="M0,0H161.3a0,0,0,0,1,0,0V148.424a20.918,20.918,0,0,1-20.918,20.918H20.918A20.918,20.918,0,0,1,0,148.424V0A0,0,0,0,1,0,0Z" transform="translate(1121.301 -84.671)" fill="#ff603f"/>
        <path id="Rectangle_237" data-name="Rectangle 237" d="M0,0H161.3a0,0,0,0,1,0,0V148.424a20.918,20.918,0,0,1-20.918,20.918H20.918A20.918,20.918,0,0,1,0,148.424V0A0,0,0,0,1,0,0Z" transform="translate(1282.602 -84.671)" fill="#ff603f"/>
        <path id="Rectangle_238" data-name="Rectangle 238" d="M0,0H161.3a0,0,0,0,1,0,0V148.424a20.918,20.918,0,0,1-20.918,20.918H20.918A20.918,20.918,0,0,1,0,148.424V0A0,0,0,0,1,0,0Z" transform="translate(1443.903 -84.671)" fill="#ff603f"/>
        <path id="Rectangle_239" data-name="Rectangle 239" d="M0,0H161.3a0,0,0,0,1,0,0V148.424a20.918,20.918,0,0,1-20.918,20.918H20.918A20.918,20.918,0,0,1,0,148.424V0A0,0,0,0,1,0,0Z" transform="translate(1605.204 -84.671)" fill="#ff603f"/>
        <path id="Rectangle_240" data-name="Rectangle 240" d="M0,0H161.3a0,0,0,0,1,0,0V148.424a20.918,20.918,0,0,1-20.918,20.918H20.918A20.918,20.918,0,0,1,0,148.424V0A0,0,0,0,1,0,0Z" transform="translate(1766.505 -84.671)" fill="#ff603f"/>
      </g>
    </g>
  </g>
  <g id="Group_1215" data-name="Group 1215">
    <g id="Group_1214" data-name="Group 1214" clip-path="url(#clip-path-3)">
      <g id="Group_1213" data-name="Group 1213">
        <g id="Group_1212" data-name="Group 1212">
          <rect id="Rectangle_242" data-name="Rectangle 242" width="1959.506" height="363.706" transform="translate(-19.753 723.435)" fill="#803e2e" stroke="#4f0c00" stroke-miterlimit="10" stroke-width="0.419"/>
          <g id="Rectangle_243" data-name="Rectangle 243" transform="translate(-19.753 764.373)" fill="#e37d49" stroke="#4f0c00" stroke-miterlimit="10" stroke-width="0.396">
            <rect width="1959.506" height="322.768" stroke="none"/>
            <rect x="-0.198" y="-0.198" width="1959.902" height="323.164" fill="none"/>
          </g>
          <g id="Group_1211" data-name="Group 1211" opacity="0.2" style="mix-blend-mode: multiply;isolation: isolate">
            <rect id="Rectangle_244" data-name="Rectangle 244" width="1959.506" height="9.54" transform="translate(-19.753 785.36)" fill="#803e2e"/>
            <rect id="Rectangle_245" data-name="Rectangle 245" width="1959.506" height="9.54" transform="translate(-19.753 823.314)" fill="#803e2e"/>
            <rect id="Rectangle_246" data-name="Rectangle 246" width="1959.506" height="9.54" transform="translate(-19.753 861.269)" fill="#803e2e"/>
            <rect id="Rectangle_247" data-name="Rectangle 247" width="1959.506" height="9.54" transform="translate(-19.753 899.223)" fill="#803e2e"/>
            <rect id="Rectangle_248" data-name="Rectangle 248" width="1959.506" height="9.54" transform="translate(-19.753 937.177)" fill="#803e2e"/>
            <rect id="Rectangle_249" data-name="Rectangle 249" width="1959.506" height="9.54" transform="translate(-19.753 975.132)" fill="#803e2e"/>
            <rect id="Rectangle_250" data-name="Rectangle 250" width="1959.506" height="9.54" transform="translate(-19.753 1013.086)" fill="#803e2e"/>
            <rect id="Rectangle_251" data-name="Rectangle 251" width="1959.506" height="9.54" transform="translate(-19.753 1051.04)" fill="#803e2e"/>
          </g>
          <rect id="Rectangle_252" data-name="Rectangle 252" width="1775.326" height="223.604" transform="translate(72.337 811.168)" fill="#803e2e" stroke="#4f0c00" stroke-miterlimit="10" stroke-width="0.51"/>
          <g id="Rectangle_253" data-name="Rectangle 253" transform="translate(72.344 811.167)" fill="#f7e6b2" stroke="#4f0c00" stroke-miterlimit="10" stroke-width="0.51">
            <rect width="1775.313" height="223.597" stroke="none"/>
            <rect x="-0.255" y="-0.255" width="1775.823" height="224.107" fill="none"/>
          </g>
          <g id="Rectangle_254" data-name="Rectangle 254" transform="translate(97.65 826.505)" fill="none" stroke="#4f0c00" stroke-miterlimit="10" stroke-width="0.467">
            <rect width="1724.7" height="192.921" stroke="none"/>
            <rect x="-0.234" y="-0.234" width="1725.167" height="193.388" fill="none"/>
          </g>
        </g>
      </g>
    </g>
  </g>
</svg>
