<?xml version="1.0" encoding="utf-8"?>
<!-- Generator: Adobe Illustrator 26.0.1, SVG Export Plug-In . SVG Version: 6.00 Build 0)  -->
<svg version="1.1" id="Layer_1" xmlns="http://www.w3.org/2000/svg" xmlns:xlink="http://www.w3.org/1999/xlink" x="0px" y="0px"
	 viewBox="0 0 300 150" style="enable-background:new 0 0 300 150;" xml:space="preserve">
<style type="text/css">
	.st0{fill-rule:evenodd;clip-rule:evenodd;fill:#1A9ED9;}
	.st1{fill:#FFFFFF;}
	.st2{fill-rule:evenodd;clip-rule:evenodd;fill:#FFFFFF;}
	.st3{fill:#1A9ED9;}
	.st4{fill-rule:evenodd;clip-rule:evenodd;fill:url(#SVGID_1_);}
	.st5{fill-rule:evenodd;clip-rule:evenodd;fill:url(#SVGID_00000008149634347165353540000008640139631190836380_);}
	.st6{fill-rule:evenodd;clip-rule:evenodd;fill:url(#SVGID_00000070106691034054711540000008711619459207830433_);}
	.st7{fill-rule:evenodd;clip-rule:evenodd;fill:url(#SVGID_00000075855623957543288450000008962395080821270682_);}
	.st8{fill-rule:evenodd;clip-rule:evenodd;fill:url(#SVGID_00000093158279672661454920000005686084084527371188_);}
	.st9{fill-rule:evenodd;clip-rule:evenodd;fill:url(#SVGID_00000121276169474455313260000007817256092354077088_);}
	.st10{fill-rule:evenodd;clip-rule:evenodd;fill:url(#SVGID_00000013191035617323111940000008921244349726227593_);}
	.st11{fill-rule:evenodd;clip-rule:evenodd;fill:url(#SVGID_00000175303571136554959570000008405670294580683932_);}
	.st12{fill-rule:evenodd;clip-rule:evenodd;fill:url(#SVGID_00000112630003966760963040000009468902065619668646_);}
	.st13{fill-rule:evenodd;clip-rule:evenodd;fill:url(#SVGID_00000091011699942044688710000015969923353147256987_);}
	.st14{fill-rule:evenodd;clip-rule:evenodd;fill:url(#SVGID_00000119830904919305292970000008096395094176096697_);}
	.st15{fill-rule:evenodd;clip-rule:evenodd;fill:url(#SVGID_00000164488228544471092120000015818829188116126348_);}
	.st16{fill-rule:evenodd;clip-rule:evenodd;fill:#FCF8CF;}
	.st17{fill:#D06728;}
	.st18{fill:#1980C3;}
	.st19{fill:url(#SVGID_00000077318994041193456560000010919598459741289142_);}
	.st20{fill:url(#SVGID_00000052094764276265886210000018098807622964955828_);}
	.st21{fill:url(#SVGID_00000055672765767518326800000017604678247365737905_);}
	.st22{fill:url(#SVGID_00000019662566354583579920000008824818560910828434_);}
	.st23{fill:url(#SVGID_00000138554628307026862860000014315510146217673870_);}
	.st24{fill:url(#SVGID_00000096030895472231894460000009901748929125273991_);}
	.st25{fill:url(#SVGID_00000040567313980457504540000004906144512277163187_);}
	.st26{fill:url(#SVGID_00000114790323196814335380000002985217827121693314_);}
	.st27{fill:url(#SVGID_00000051366351557656356100000007202414977339615916_);}
	.st28{fill:url(#SVGID_00000181049722441029658260000005740757193653473956_);}
	.st29{fill:#252524;}
	.st30{fill-rule:evenodd;clip-rule:evenodd;fill:url(#SVGID_00000067952206608224705440000000284797497141238203_);}
	.st31{fill-rule:evenodd;clip-rule:evenodd;fill:url(#SVGID_00000165919205144594243180000004186221528255986351_);}
	.st32{fill-rule:evenodd;clip-rule:evenodd;fill:url(#SVGID_00000104700916422149321940000015075920053579147654_);}
	.st33{fill-rule:evenodd;clip-rule:evenodd;fill:url(#SVGID_00000087389069683137876810000000146423339624842155_);}
	.st34{fill-rule:evenodd;clip-rule:evenodd;fill:url(#SVGID_00000032647949845576101220000009628933441936197772_);}
	.st35{fill-rule:evenodd;clip-rule:evenodd;fill:url(#SVGID_00000036967015166747683100000002463093450587975103_);}
	.st36{fill-rule:evenodd;clip-rule:evenodd;fill:url(#SVGID_00000165231674910481993230000017331193617343781766_);}
	.st37{fill-rule:evenodd;clip-rule:evenodd;fill:url(#SVGID_00000183218390753321468130000003044954328615675565_);}
	.st38{fill-rule:evenodd;clip-rule:evenodd;fill:url(#SVGID_00000108271196033200722200000001582805159200602764_);}
	.st39{fill-rule:evenodd;clip-rule:evenodd;fill:url(#SVGID_00000050642671748542534530000017343522513138917302_);}
	.st40{fill-rule:evenodd;clip-rule:evenodd;fill:url(#SVGID_00000055692580625593509240000003678516792135822486_);}
	.st41{fill-rule:evenodd;clip-rule:evenodd;fill:url(#SVGID_00000170988404976473541800000015891660124214368410_);}
	.st42{fill:url(#SVGID_00000003063680697823950660000002865548278358638262_);}
	.st43{fill:url(#SVGID_00000023989130518012239870000015969679452986489534_);}
	.st44{fill:url(#SVGID_00000142139316745288561200000010286130666959626938_);}
	.st45{fill:url(#SVGID_00000058578976741480619370000008620037276667051156_);}
	.st46{fill:url(#SVGID_00000025443054054001411190000017942164946990228891_);}
	.st47{fill:url(#SVGID_00000154421197615839372020000017644975005826291863_);}
	.st48{fill:url(#SVGID_00000024698738469236590650000006297260438058109624_);}
	.st49{fill:url(#SVGID_00000000181371875291887010000002644810613214492329_);}
	.st50{fill:url(#SVGID_00000018950606957091194640000002994062916164818859_);}
	.st51{fill:url(#SVGID_00000101085066715119723480000008165113222129336451_);}
	.st52{fill:url(#SVGID_00000015313312134870412370000001194713835056299694_);}
	.st53{fill:#FCE1CD;}
	.st54{fill:#EF2638;}
	.st55{fill:#83412B;}
	.st56{fill:#FF522A;}
	.st57{fill:#EF0012;}
	.st58{fill:#FEFA02;}
	.st59{fill:#F0AB66;}
	.st60{fill:#F5BB5A;}
	.st61{fill:#FF1027;}
	.st62{fill:#87FD49;}
	.st63{fill:#894532;}
</style>
<g>
	<g>
		<g>
			<g>
				<g>
					<path class="st53" d="M179.4,124.5c0,0-1,15,1.9,14.3l1.8-3.2c0,0,0.4-5.5,0-9.5L179.4,124.5z"/>
					<path d="M181.1,139.1c-0.2,0-0.4-0.1-0.6-0.2c-2.1-1.8-1.3-13.8-1.3-14.3c0-0.1,0-0.1,0.1-0.1c0,0,0.1,0,0.2,0l3.7,1.6
						c0.1,0,0.1,0.1,0.1,0.1c0.4,4,0,9.5,0,9.6c0,0,0,0,0,0.1l-1.8,3.2c0,0-0.1,0.1-0.1,0.1C181.2,139,181.2,139.1,181.1,139.1z
						 M179.5,124.8c-0.1,1.7-0.7,12.2,1.1,13.7c0.2,0.1,0.3,0.2,0.5,0.2l1.7-3.1c0-0.5,0.3-5.6,0-9.4L179.5,124.8z"/>
				</g>
				<g>
					<path class="st54" d="M187.4,140c0,0.4,0,0.8-0.2,1.1c-1.7,5.4-13.8,5.9-13.8,5.9c-3.6,0.3-5.7-0.5-6.9-1.5
						c-1.5-1.2-1.8-3.4-0.6-5c1.2-1.7,3.1-2.8,5.2-3.6c1.2-0.5,2.4-0.8,3.5-1.1c2.4-0.6,5-0.7,5-0.7c1.8,0.9,3.8,0,3.8,0
						C186.9,136,187.4,138.8,187.4,140z"/>
					<path d="M171.8,147.3c-2.3,0-4.2-0.5-5.5-1.6c-1.6-1.3-1.9-3.6-0.7-5.3c1.1-1.5,2.8-2.7,5.2-3.7c1.1-0.4,2.2-0.8,3.5-1.1
						c2.4-0.6,5-0.7,5-0.7c0,0,0.1,0,0.1,0c1.7,0.9,3.6,0,3.6,0c0,0,0.1,0,0.1,0c3.9,0.8,4.3,3.8,4.3,5l0,0c0,0.4-0.1,0.8-0.2,1.2
						c-1.7,5.4-13.5,6-14,6C172.9,147.3,172.3,147.3,171.8,147.3z M179.4,135.4c-0.4,0-2.7,0.2-4.9,0.7c-1.2,0.3-2.4,0.6-3.4,1.1
						c-2.3,0.9-4,2.1-5.1,3.6c-1.1,1.5-0.9,3.6,0.6,4.8c1.5,1.2,3.8,1.7,6.8,1.4c0.1,0,12-0.6,13.7-5.8c0.1-0.3,0.2-0.7,0.2-1.1l0,0
						c0-1.2-0.4-3.9-4-4.7C182.9,135.5,181.1,136.2,179.4,135.4z"/>
				</g>
				<g>
					<path class="st53" d="M174.5,135.9c-1.5,6.1-3.6,5.3-3.6,5.3c-1.3-0.1-0.6-2.4,0.1-4.2C172.2,136.5,173.4,136.1,174.5,135.9z"
						/>
					<path d="M171.1,141.4c-0.1,0-0.2,0-0.3,0c-0.3,0-0.5-0.2-0.7-0.4c-0.4-0.6-0.2-2,0.7-4c0,0,0.1-0.1,0.1-0.1
						c1.1-0.4,2.2-0.8,3.5-1.1c0.1,0,0.1,0,0.2,0c0,0,0.1,0.1,0,0.2c-0.9,3.6-2,4.8-2.7,5.2C171.6,141.3,171.3,141.4,171.1,141.4z
						 M171.1,137.1c-0.8,1.8-1,3.1-0.7,3.7c0.1,0.2,0.2,0.2,0.4,0.3c0,0,0,0,0,0c0,0,0.3,0.1,0.8-0.2c0.7-0.4,1.7-1.5,2.5-4.7
						C173.1,136.4,172.1,136.7,171.1,137.1z"/>
				</g>
			</g>
			<g>
				<g>
					<path class="st53" d="M205.5,124.5c0,0,1,15-1.9,14.3l-1.8-3.2c0,0-0.4-5.5,0-9.5L205.5,124.5z"/>
					<path d="M203.8,139.1c-0.1,0-0.2,0-0.2,0c0,0-0.1,0-0.1-0.1l-1.8-3.2c0,0,0,0,0-0.1c0-0.1-0.4-5.5,0-9.6c0-0.1,0-0.1,0.1-0.1
						l3.7-1.6c0.1,0,0.1,0,0.2,0c0,0,0.1,0.1,0.1,0.1c0,0.5,0.8,12.5-1.3,14.3C204.3,139,204.1,139.1,203.8,139.1z M203.8,138.7
						c0.2,0,0.3,0,0.5-0.2c1.8-1.5,1.3-12,1.1-13.7l-3.4,1.4c-0.3,3.8,0,8.9,0,9.4L203.8,138.7z"/>
				</g>
				<g>
					<path class="st54" d="M197.5,140c0,0.4,0,0.8,0.2,1.1c1.7,5.4,13.8,5.9,13.8,5.9c3.6,0.3,5.7-0.5,6.9-1.5
						c1.5-1.2,1.8-3.4,0.6-5c-1.2-1.7-3.1-2.8-5.2-3.6c-1.2-0.5-2.4-0.8-3.5-1.1c-2.4-0.6-5-0.7-5-0.7c-1.8,0.9-3.8,0-3.8,0
						C198,136,197.5,138.8,197.5,140z"/>
					<path d="M213.1,147.3c-0.5,0-1,0-1.6-0.1c-0.5,0-12.2-0.6-14-6c-0.1-0.4-0.2-0.8-0.2-1.2c0-1.2,0.5-4.2,4.3-5c0,0,0.1,0,0.1,0
						c0,0,1.9,0.9,3.6,0c0,0,0.1,0,0.1,0c0,0,2.6,0.1,5,0.7c1.2,0.3,2.4,0.7,3.5,1.1c2.4,1,4.1,2.2,5.2,3.7c1.2,1.7,0.9,4-0.7,5.3
						C217.3,146.8,215.4,147.3,213.1,147.3z M201.7,135.4c-3.6,0.8-4,3.5-4,4.7l0,0c0,0.4,0,0.8,0.2,1.1c1.7,5.2,13.5,5.8,13.7,5.8
						c3,0.3,5.3-0.2,6.8-1.4c1.4-1.2,1.7-3.3,0.6-4.8c-1-1.4-2.8-2.6-5.1-3.6c-1.1-0.4-2.2-0.8-3.4-1.1c-2.2-0.5-4.5-0.7-4.9-0.7
						C203.8,136.2,202,135.5,201.7,135.4z M197.5,140L197.5,140L197.5,140z"/>
				</g>
				<g>
					<path class="st53" d="M210.4,135.9c1.5,6.1,3.6,5.3,3.6,5.3c1.3-0.1,0.6-2.4-0.1-4.2C212.7,136.5,211.5,136.1,210.4,135.9z"/>
					<path d="M213.8,141.4c-0.2,0-0.5,0-0.8-0.2c-0.8-0.4-1.9-1.7-2.7-5.2c0-0.1,0-0.1,0-0.2c0,0,0.1-0.1,0.2,0
						c1.2,0.3,2.4,0.7,3.5,1.1c0,0,0.1,0.1,0.1,0.1c0.8,2,1.1,3.4,0.7,4c-0.1,0.2-0.4,0.4-0.7,0.4
						C214,141.4,213.9,141.4,213.8,141.4z M210.7,136.1c0.8,3.2,1.8,4.4,2.5,4.7c0.5,0.3,0.8,0.2,0.8,0.2c0,0,0,0,0,0
						c0.2,0,0.4-0.1,0.4-0.3c0.3-0.5,0.1-1.8-0.7-3.7C212.8,136.7,211.8,136.4,210.7,136.1z"/>
				</g>
			</g>
			<g>
				<path class="st55" d="M173.5,100.6c0,0-16.1-23.9-5.7-60.8c0,0,6.8-27.9,34.7-28c0,0,19.7-0.1,29.4,20.1c0,0,11.1,18.4,9.2,46.3
					v0c0,8.1-1.8,16.2-5.3,23.5l-2.5,5.2c-2.5,4.7-4.8,6.6-7.3,7.6c-2.8,1.2-6,1.7-10.7,0.4l-10.9-37.2L226.3,58l-21-3.9l-7.1-12.5
					l-8.2,8.9l-14.8,5l12.6,23.3L173.5,100.6z"/>
				<path d="M220.4,115.8c-1.5,0-3.1-0.2-5.1-0.8c-0.1,0-0.1-0.1-0.1-0.1l-10.9-37.2c0-0.1,0-0.1,0-0.2l21.6-19.5l-20.6-3.9
					c0,0-0.1,0-0.1-0.1l-7-12.3l-8.1,8.8c0,0,0,0-0.1,0l-14.6,4.9l12.5,23.1c0,0.1,0,0.1,0,0.2l-14.3,21.8c0,0-0.1,0.1-0.1,0.1
					c-0.1,0-0.1,0-0.1-0.1c0-0.1-4.1-6.1-6.8-16.6c-1.6-6.2-2.4-12.6-2.5-19.2c-0.1-8.2,1.1-16.7,3.5-25.1c0-0.1,1.8-7.1,6.9-14
					c3-4.1,6.6-7.3,10.7-9.7c5.1-2.9,10.9-4.4,17.3-4.4c0.1,0,5,0,11.1,2.5c3.6,1.5,6.8,3.5,9.7,6c3.6,3.1,6.5,7.1,8.7,11.7
					c0.1,0.2,2.9,4.8,5.3,12.7c2.3,7.4,4.9,19.2,3.9,33.6c0,8.1-1.8,16.3-5.3,23.6l-2.5,5.2c-2.2,4.1-4.4,6.4-7.3,7.7
					C224.5,115.3,222.8,115.8,220.4,115.8z M215.5,114.7c5,1.4,8.1,0.6,10.4-0.4c1.9-0.8,4.5-2.4,7.2-7.5l2.5-5.2
					c3.4-7.3,5.3-15.4,5.3-23.4c1-14.4-1.6-26.2-3.9-33.5c-2.5-8-5.3-12.6-5.3-12.7c0,0,0,0,0,0c-5-10.4-12.7-15.3-18.3-17.5
					c-6-2.5-10.9-2.5-11-2.5c0,0,0,0,0,0c-14.4,0-23,7.6-27.7,13.9c-5.1,6.9-6.8,13.8-6.8,13.9c-5.3,19-3.5,34.5-1,44.1
					c2.4,9.3,5.9,15.1,6.6,16.3l14.1-21.5L175,55.6c0,0,0-0.1,0-0.1c0,0,0.1-0.1,0.1-0.1l14.8-5l8.2-8.9c0,0,0.1-0.1,0.1-0.1
					c0.1,0,0.1,0,0.1,0.1l7.1,12.5l20.9,3.9c0.1,0,0.1,0.1,0.1,0.1c0,0.1,0,0.1-0.1,0.2l-21.8,19.7L215.5,114.7z"/>
			</g>
			<g>
				<path class="st53" d="M208.5,86.3c0,0,15.6,9.1,21.1-5.7c0.3-0.9,0-1.8-0.7-2.3c-0.2-0.1-0.3-0.2-0.5-0.2
					c-0.8-0.2-1.5-0.7-1.9-1.5c-0.3-0.8-0.4-1.7,0.2-2.7c0.4-0.7,1.4-0.7,1.9-0.1c0.4,0.5,0.8,1.2,1.3,2.3c0.9,2,1.5-0.3,1.7-1.7
					c0.2-1.1,0.6-2.2,1.2-3.1c0.6-1,1.4-1.9,2.4-2.2c0.8-0.2,1.6,0.5,1.5,1.3c-0.1,0.6-0.4,1.5-1.2,2.5c-0.4,0.5-0.7,1-1,1.6
					c-0.4,0.8-0.7,1.8,0.1,1.2c0.2-0.2,0.5-0.4,0.6-0.6c0.8-1,3.6-4.6,4.7-3.1c0.2,0.2,0.2,0.5,0.2,0.8c-0.1,0.6-0.5,1.9-2.5,3.2
					c0,0-1.1,0.8-1.4,1.5c-0.2,0.5,0.3,1,0.8,0.7l2.3-1.4c0.3-0.2,0.9-0.2,1,0.2c0.1,0.4,0.2,0.8-0.8,1.7c0,0-2.3,2.6-7,2.5
					c-0.3,0-0.6,0.2-0.6,0.5c-0.5,2.6-3.9,13.5-21,9.6L208.5,86.3z"/>
				<path d="M217.4,92.4c-2.1,0-4.3-0.3-6.8-0.8c-0.1,0-0.1,0-0.1-0.1l-2.1-5.1c0-0.1,0-0.1,0-0.2c0.1,0,0.1-0.1,0.2,0
					c0.1,0,7.6,4.3,13.9,2.1c3.1-1.1,5.5-3.7,6.9-7.7c0.3-0.8,0-1.7-0.7-2.1c-0.1-0.1-0.3-0.2-0.5-0.2c-0.9-0.2-1.6-0.8-2-1.6
					c-0.4-1-0.3-2,0.2-2.9c0.2-0.4,0.6-0.6,1.1-0.6c0.4,0,0.9,0.2,1.1,0.5c0.5,0.6,0.9,1.4,1.3,2.3c0.2,0.5,0.4,0.7,0.5,0.7
					c0.2,0,0.6-0.6,0.9-2.3c0.2-1.2,0.6-2.2,1.2-3.2c0.8-1.3,1.6-2,2.5-2.3c0.4-0.1,0.9,0,1.2,0.3c0.4,0.3,0.5,0.8,0.5,1.2
					c-0.1,0.8-0.5,1.7-1.2,2.6c-0.4,0.5-0.7,1-1,1.5c-0.4,0.8-0.4,1-0.4,1.1c0,0,0.1,0,0.2-0.1c0.2-0.1,0.4-0.3,0.6-0.5
					c0.8-1.1,2.8-3.6,4.1-3.6c0,0,0,0,0,0c0.3,0,0.6,0.1,0.8,0.4c0.2,0.3,0.3,0.6,0.2,0.9c-0.1,0.7-0.5,2-2.6,3.3
					c0,0-1.1,0.8-1.4,1.5c-0.1,0.2,0.1,0.4,0.1,0.4c0.1,0.1,0.3,0.2,0.5,0.1l2.3-1.4c0.2-0.1,0.6-0.2,0.9-0.1
					c0.2,0.1,0.3,0.2,0.4,0.4c0.1,0.5,0.1,0.9-0.9,1.9c-0.1,0.1-2.4,2.6-7.2,2.6c-0.2,0-0.4,0.1-0.5,0.4c-0.3,1.6-1.6,5.7-5.7,8.3
					C223.8,91.6,220.9,92.4,217.4,92.4z M210.8,91.2c6.4,1.4,11.5,1,15.2-1.4c4-2.5,5.2-6.5,5.5-8c0.1-0.4,0.4-0.6,0.8-0.6
					c0,0,0,0,0,0c0.1,0,0.1,0,0.2,0c4.5,0,6.7-2.4,6.7-2.4c1-0.9,0.9-1.3,0.8-1.6c0-0.1-0.1-0.2-0.2-0.2c-0.2-0.1-0.4,0-0.6,0.1
					l-2.3,1.4c-0.3,0.2-0.6,0.1-0.9-0.1c-0.2-0.2-0.3-0.5-0.2-0.8c0.3-0.8,1.4-1.6,1.5-1.6c2-1.2,2.4-2.4,2.4-3c0-0.3,0-0.5-0.2-0.7
					c-0.1-0.2-0.3-0.3-0.5-0.3c0,0,0,0,0,0c-1,0-2.6,1.8-3.9,3.4c-0.2,0.3-0.4,0.5-0.7,0.6c-0.1,0.1-0.5,0.3-0.7,0.1
					c-0.2-0.1-0.2-0.4,0.3-1.6c0.3-0.5,0.6-1.1,1-1.6c0.7-0.9,1.1-1.7,1.2-2.4c0-0.3-0.1-0.7-0.4-0.9c-0.3-0.2-0.6-0.3-0.9-0.2
					c-0.8,0.2-1.5,0.9-2.3,2.1c-0.5,0.9-0.9,1.9-1.2,3.1c-0.5,2.5-1,2.6-1.2,2.6c-0.4,0-0.7-0.5-0.9-0.9c-0.4-0.9-0.8-1.7-1.3-2.3
					c-0.2-0.3-0.5-0.4-0.8-0.4c-0.3,0-0.6,0.2-0.8,0.5c-0.5,0.8-0.6,1.7-0.2,2.6c0.3,0.7,0.9,1.2,1.7,1.4c0.2,0,0.4,0.1,0.6,0.2
					c0.8,0.5,1.2,1.6,0.8,2.5c-1.5,4-3.9,6.7-7.1,7.9c-5.6,2-12-1-13.7-1.9L210.8,91.2z"/>
			</g>
			<g>
				<path class="st53" d="M183.5,80.4l-12.6,5.3c-0.7,0.3-2.2,0.8-3,0.7c-0.4,0-1.1-0.4-1.7-0.8c-0.6-0.4-1.2-1-1.6-1.6l-3.5-4.4
					c-0.3-0.4-0.3-0.9,0-1.2c1.3-1.4,4.4-5.2,3.5-6.5c0,0-1.4-2.4-4.4,1.8c-0.2,0.2-0.5,0.2-0.6-0.1c-0.4-1.6-1.4-5.3-2.8-6.8
					c-0.6-0.6-1.7-0.4-1.9,0.5c-0.3,1-0.2,2.8,1.6,5.8c0.1,0.2,0.2,0.3,0.2,0.5c0.1,0.3,0.1,0.8-0.3,1c-0.3,0.1-0.6,0.1-0.8-0.1
					c-0.6-0.5-1.6-2.1-2.3-3.5c-0.2-0.5-0.6-1.2-1-1.6c-0.6-0.7-1.3-0.8-1.9-0.5c-0.9,0.4-1.2,1.5-0.9,2.4c0.3,0.9,0.6,1.4,1.7,2.5
					c0.3,0.3,1.1,1,1.4,1.4c0.4,0.5,0.7,1.2,0,1.3c0,0-1.6,0.2-2.7-0.7c-0.5-0.4-1-0.4-1.3-0.4c-0.4,0.1-0.8,0.3-0.6,1.1
					c0.1,0.8,0.7,1.5,1.4,1.9c0.8,0.4,2.1,1,4.1,1.2c0,0,3.2,0.2,5,2.1l5.8,6.1c1.4,1.4,3.4,2,5.3,1.4c0.1,0,0.1,0,0.2-0.1l10.5-4
					L183.5,80.4z"/>
				<path d="M168,89.5c-1.4,0-2.9-0.6-3.9-1.7l-5.8-6.1c-1.7-1.8-4.9-2.1-4.9-2.1c-2-0.2-3.4-0.7-4.1-1.2c-0.8-0.4-1.3-1.1-1.5-2
					c-0.1-0.4,0-0.7,0.1-1c0.1-0.2,0.4-0.3,0.6-0.4c0.3-0.1,0.8,0,1.5,0.4c1.1,0.8,2.6,0.7,2.6,0.7c0.1,0,0.3-0.1,0.3-0.1
					c0-0.1,0.1-0.3-0.4-0.8c-0.2-0.3-0.7-0.8-1.1-1.1c-0.1-0.1-0.2-0.2-0.3-0.3c-1.2-1.1-1.5-1.7-1.8-2.6c-0.3-1,0.1-2.1,1-2.6
					c0.8-0.4,1.5-0.2,2.1,0.5c0.3,0.3,0.6,0.9,1,1.7c0.7,1.5,1.7,3.1,2.3,3.5c0.2,0.1,0.4,0.2,0.6,0.1c0.3-0.1,0.3-0.4,0.2-0.8
					c0-0.2-0.1-0.3-0.2-0.5c-1.8-3-1.8-4.9-1.6-5.9c0.1-0.5,0.5-0.8,0.9-0.9c0.5-0.1,0.9,0,1.3,0.4c1.5,1.5,2.5,5.3,2.8,6.9
					c0,0.1,0.1,0.1,0.1,0.1c0,0,0.1,0,0.1-0.1c1.2-1.7,2.3-2.6,3.3-2.6c0.9,0,1.3,0.7,1.3,0.8c0.9,1.3-1.8,4.8-3.5,6.7
					c-0.2,0.3-0.3,0.7,0,1l3.5,4.4c0.5,0.6,1,1.1,1.6,1.5c0.6,0.5,1.2,0.7,1.6,0.8c0.6,0.1,2.1-0.4,2.9-0.7l12.6-5.3
					c0.1,0,0.2,0,0.2,0.1c0,0.1,0.1,0.1,0,0.2l-3.2,4.6c0,0,0,0-0.1,0.1l-10.5,4c-0.1,0-0.1,0-0.2,0.1
					C169.1,89.4,168.5,89.5,168,89.5z M148.8,75.5c-0.1,0-0.1,0-0.2,0c-0.2,0-0.3,0.1-0.4,0.2c-0.1,0.2-0.1,0.4-0.1,0.7
					c0.1,0.7,0.6,1.4,1.3,1.7c0.7,0.4,2,0.9,4,1.1c0.1,0,3.3,0.3,5.1,2.2l5.8,6.1c1.3,1.4,3.3,1.9,5.1,1.3c0.1,0,0.1,0,0.2-0.1
					l10.5-4l2.8-4.1l-12.1,5.1c-0.7,0.3-2.3,0.8-3.1,0.8c-0.5,0-1.1-0.3-1.8-0.8c-0.6-0.4-1.2-1-1.7-1.6l-3.5-4.4
					c-0.3-0.4-0.3-1,0-1.4c2.1-2.4,4.2-5.3,3.5-6.3c0,0-0.4-0.6-1-0.6c-0.6,0-1.6,0.4-3,2.4c-0.1,0.2-0.3,0.2-0.5,0.2
					c-0.2,0-0.3-0.2-0.4-0.4c-0.4-1.5-1.3-5.2-2.7-6.7c-0.2-0.3-0.6-0.4-0.9-0.3c-0.3,0.1-0.6,0.3-0.7,0.7c-0.3,1-0.2,2.7,1.5,5.6
					c0.1,0.2,0.2,0.4,0.2,0.6c0.1,0.6,0,1-0.4,1.2c-0.3,0.1-0.7,0.1-1-0.1c-0.7-0.5-1.7-2.3-2.3-3.6c-0.1-0.3-0.5-1.2-0.9-1.6
					c-0.5-0.6-1.1-0.8-1.7-0.4c-0.8,0.4-1.1,1.3-0.8,2.2c0.3,0.8,0.5,1.3,1.7,2.4c0.1,0.1,0.2,0.2,0.3,0.3c0.4,0.3,0.9,0.8,1.1,1.1
					c0.4,0.5,0.6,0.9,0.4,1.2c-0.1,0.2-0.3,0.3-0.6,0.4c-0.1,0-1.7,0.2-2.8-0.7C149.5,75.6,149.1,75.5,148.8,75.5z"/>
			</g>
			<g>
				<path class="st56" d="M216,122c-0.1,0.4-2.3,0.7-2.3,0.7c-14.3-0.9-19.6,0.3-19.6,0.3c-20.8,2.1-23.9,1.1-23.9,1.1
					c-0.1-0.2-0.1-0.4-0.1-0.6c-0.8-3.9,0.9-15.5,0.9-15.5c3.2-26.5,19-32.6,19-32.6l14.5,1.6c7.3,5.1,8.9,14.3,10,18.5
					C217.9,108.5,216.4,118.8,216,122z"/>
				<path d="M174.2,124.5c-3.3,0-4.2-0.3-4.2-0.3c-0.1,0-0.1-0.1-0.1-0.1c-0.1-0.2-0.1-0.4-0.1-0.6c-0.8-3.9,0.8-15.1,0.9-15.6
					c0.7-6.1,2.2-11.5,4.3-16.3c1.7-3.8,3.9-7.2,6.4-10c4.3-4.8,8.3-6.4,8.3-6.4c0,0,0.1,0,0.1,0l14.5,1.6c0,0,0.1,0,0.1,0
					c6.5,4.6,8.5,12.4,9.7,17.1c0.1,0.6,0.3,1.1,0.4,1.5c3.5,12.8,2.1,23,1.7,26.3l0,0.2l0,0c-0.1,0.4-1.4,0.7-2.5,0.9c0,0,0,0,0,0
					c-14.1-0.9-19.5,0.3-19.6,0.3c0,0,0,0,0,0C183.6,124.2,177.6,124.5,174.2,124.5z M170.2,123.9c0.6,0.1,5,0.8,23.8-1.1
					c0.3-0.1,5.8-1.1,19.6-0.3c1.1-0.1,2.1-0.4,2.2-0.6l0-0.2c0.4-3.3,1.8-13.5-1.7-26.2c-0.1-0.5-0.3-1-0.4-1.5
					c-1.2-4.6-3.1-12.4-9.5-16.9l-14.4-1.6c-0.4,0.2-4.1,1.8-8.2,6.3c-3.9,4.4-9,12.5-10.6,26.1c0,0.1-1.6,11.6-0.9,15.5
					C170.1,123.6,170.2,123.7,170.2,123.9z M216,122L216,122L216,122z M215.8,121.9C215.8,121.9,215.8,121.9,215.8,121.9
					L215.8,121.9z M215.8,121.9L215.8,121.9L215.8,121.9z"/>
			</g>
			<g>
				<path class="st57" d="M216,122c0,0.1,0,0.4-0.1,0.6c-0.1,0.5-0.3,0.9-0.7,1.2c-5.7,4.3-21,5-27.4,4.6c-16.9-1-17.7-4.3-17.7-4.3
					c-0.1-0.2-0.1-0.4-0.1-0.6c5.6-3,20.4-12,23.2-25.5C193.2,98,192.1,112.6,216,122z"/>
				<path d="M191.4,128.6c-1.4,0-2.6,0-3.7-0.1c-16.6-1-17.8-4.2-17.9-4.4c-0.1-0.2-0.1-0.4-0.1-0.6c0-0.1,0-0.1,0.1-0.2
					c6-3.2,20.3-12.1,23.1-25.4c0-0.1,0.1-0.1,0.2-0.1c0.1,0,0.2,0.1,0.1,0.2c0,0-0.2,3.7,2.4,8.4c2.5,4.4,8,10.6,20.2,15.4
					c0.1,0,0.1,0.1,0.1,0.2c0,0.1,0,0.4-0.1,0.6c-0.1,0.5-0.3,1-0.7,1.3C210.5,127.6,198.9,128.6,191.4,128.6z M170.1,123.5
					c0,0.2,0.1,0.3,0.1,0.4c0,0,0,0,0,0c0,0,1.1,3.2,17.6,4.2c6.5,0.4,21.7-0.2,27.3-4.6c0.3-0.3,0.6-0.7,0.6-1.1
					c0-0.2,0-0.3,0.1-0.4c-5.4-2.1-10-4.7-13.5-7.7c-2.9-2.4-5.2-5-6.8-7.9c-1.8-3.2-2.3-5.8-2.4-7.3c-1.5,5.4-4.9,10.6-10.3,15.5
					C177.9,119.1,172.8,122.1,170.1,123.5z"/>
			</g>
			<g>
				<circle class="st57" cx="193.3" cy="97.2" r="2.3"/>
				<path d="M193.3,99.7c-1.4,0-2.5-1.1-2.5-2.5s1.1-2.5,2.5-2.5c1.4,0,2.5,1.1,2.5,2.5S194.7,99.7,193.3,99.7z M193.3,95
					c-1.2,0-2.2,1-2.2,2.2c0,1.2,1,2.2,2.2,2.2c1.2,0,2.2-1,2.2-2.2C195.5,96,194.5,95,193.3,95z"/>
			</g>
			<g>
				<path class="st53" d="M229.6,55.1c-0.9,2.4-7.3,19.2-21.5,22.9c0,0-21.8,8.2-34-11.8c0,0-2.9-4.7-5-12.9
					c2.6,0.3,9.6,0.7,17.2-3.2c7.2-3.8,10.9-9.5,12.2-11.8c0.7,1.8,2.8,7.4,8.8,12.5C215.3,57.6,229.7,55,229.6,55.1z"/>
				<path d="M197.7,79.9c-0.6,0-1.3,0-2-0.1c-4.1-0.3-7.8-1.3-11.2-3.1c-4.2-2.3-7.7-5.8-10.5-10.4c0,0-2.9-4.8-5-12.9
					c0-0.1,0-0.1,0-0.2c0,0,0.1-0.1,0.1-0.1c3.4,0.4,10.1,0.5,17.1-3.2c6.8-3.5,10.5-8.9,12.1-11.7c0-0.1,0.1-0.1,0.2-0.1
					c0.1,0,0.1,0,0.1,0.1l0.1,0.2c0.8,2,2.9,7.3,8.7,12.2c4.6,3.9,12.3,5.5,21.8,4.4c0.5-0.1,0.5-0.1,0.6,0c0,0,0,0.1,0,0.2l0,0
					c-1.9,5-4.2,8.8-5.8,11c-4.5,6.4-9.8,10.4-15.7,12C208,78.3,203.6,79.9,197.7,79.9z M169.4,53.5c2.1,8,4.9,12.5,4.9,12.6
					c6.2,10.3,15.1,12.9,21.4,13.3c6.9,0.4,12.3-1.6,12.4-1.6c0,0,0,0,0,0c12.5-3.3,19-16.7,21.3-22.5c-0.1,0-0.1,0-0.2,0
					c-9.5,1.1-17.4-0.5-22-4.4c-5.7-4.8-7.8-10-8.7-12.2c-1.7,3-5.5,8.1-12.1,11.6C179.5,53.9,172.9,53.9,169.4,53.5z"/>
			</g>
			<g>
				<path d="M195.4,72.6c-1.5,0-3-0.2-4.4-0.5c-3.7-0.8-8.5-2.6-10.8-6.5c0-0.1,0-0.2,0.1-0.2c0.1,0,0.2,0,0.2,0.1
					c2.2,3.8,7,5.6,10.6,6.4c4.1,0.9,8.2,0.5,11.9-1.1c6.3-2.7,7.6-7.3,7.6-7.4c0-0.1,0.1-0.1,0.2-0.1c0.1,0,0.1,0.1,0.1,0.2
					c0,0-1.4,4.8-7.8,7.6C200.6,72.1,198,72.6,195.4,72.6z"/>
			</g>
			<g>
				<path d="M177.5,66.4C177.4,66.4,177.4,66.4,177.5,66.4c-0.1,0-0.2-0.1-0.2-0.2c0-0.1,0.1-0.2,0.2-0.2c0,0,0,0,0.1,0
					c4.2,0,6.6-3.5,6.6-3.5c0.1-0.1,0.2-0.1,0.2,0c0.1,0.1,0.1,0.2,0,0.2C184.3,62.8,181.8,66.4,177.5,66.4z"/>
			</g>
			<g>
				<path d="M212.2,63.6c-2.5,0-4.5-1.1-4.5-1.1c-0.1,0-0.1-0.2-0.1-0.2c0-0.1,0.2-0.1,0.2-0.1c0,0,4.6,2.6,8.6-0.3
					c0.1-0.1,0.2,0,0.2,0c0.1,0.1,0,0.2,0,0.2C215.2,63.2,213.6,63.6,212.2,63.6z"/>
			</g>
			<g>
				<path d="M193.8,66.5c-0.1,0-0.3,0-0.4-0.1c-1.2-0.4-1.8-2.3-1.8-2.4c0-0.1,0-0.2,0.1-0.2c0.1,0,0.2,0,0.2,0.1
					c0,0,0.6,1.8,1.6,2.1c0.4,0.1,0.9,0,1.4-0.4c0.1-0.1,0.2-0.1,0.2,0c0.1,0.1,0.1,0.2,0,0.2C194.6,66.4,194.2,66.5,193.8,66.5z"/>
			</g>
			<g>
				<path class="st1" d="M190.6,58.9c-0.9,0-1.6-1.1-1.6-2.5s0.7-2.5,1.6-2.5c0.9,0,1.6,1.1,1.6,2.5S191.5,58.9,190.6,58.9z"/>
				<path d="M190.6,54.1c0.8,0,1.4,1,1.4,2.3c0,1.3-0.6,2.3-1.4,2.3s-1.4-1-1.4-2.3C189.2,55.1,189.8,54.1,190.6,54.1 M190.6,53.7
					c-1,0-1.8,1.2-1.8,2.7c0,1.5,0.8,2.7,1.8,2.7s1.8-1.2,1.8-2.7C192.4,54.9,191.6,53.7,190.6,53.7L190.6,53.7z"/>
			</g>
			<g>
				<path class="st1" d="M197.3,59.2c-1,0-1.8-1.2-1.8-2.7c0-1.5,0.8-2.7,1.8-2.7s1.8,1.2,1.8,2.7C199,58,198.2,59.2,197.3,59.2z"/>
				<path d="M197.3,54.1c0.9,0,1.6,1.1,1.6,2.5c0,1.4-0.7,2.5-1.6,2.5c-0.9,0-1.6-1.1-1.6-2.5C195.6,55.2,196.4,54.1,197.3,54.1
					 M197.3,53.7c-1.1,0-2,1.3-2,2.8c0,1.6,0.9,2.8,2,2.8c1.1,0,2-1.3,2-2.8C199.2,55,198.4,53.7,197.3,53.7L197.3,53.7z"/>
			</g>
			<ellipse cx="191" cy="56.4" rx="0.4" ry="0.9"/>
			<ellipse cx="197.8" cy="56.6" rx="0.4" ry="1.1"/>
		</g>
		<g>
			<g>
				<path class="st54" d="M218.6,41.8c0,0-2.3,5.4,0.9,7.9c1.7,1.3,5.3,0.5,6.3-1.9c1-2.4-1.2-5.5-4.3-7.9c0,0,4,3.6,7,1.1
					c1.4-1.2,1.6-3.2,1.1-4.8c-0.4-1.4-2.2-3.1-5-2.6c0,0-2.1,0.3-3.6,2.2c0,0,1.5-2.1,1.8-4c0.4-3.4-1.9-5.3-5.2-5.2
					c-1.5,0.1-3.7,1.3-3.7,4.1c0,1.3,0.7,3.3,2.5,4.8c0,0-3-3-5.7-3.3c-2-0.2-3.5,0.9-4.3,2.7c-0.4,0.9-0.7,4.1,2.3,5.4
					c0,0,1.9,1,5.6-0.7c0,0-1.4,0.5-2.9,1.3c-2.3,1.4-2.8,4.7-0.9,6.7c0,0,0,0,0.1,0.1c1.7,1.8,4.7,1.4,5.9-0.7
					C217.1,45.8,217.9,44.1,218.6,41.8z"/>
				<path d="M221.6,50.5c-0.9,0-1.6-0.2-2.2-0.7c-1.6-1.3-1.9-3.3-1.7-5c-0.3,0.8-0.7,1.5-1.1,2.2c-0.6,1.1-1.7,1.8-2.9,1.9
					c-1.2,0.1-2.4-0.3-3.3-1.2l-0.1-0.1c-0.9-1-1.3-2.3-1.2-3.7c0.2-1.4,1-2.6,2.1-3.3c0.1-0.1,0.2-0.1,0.3-0.2
					c-1.9,0.3-2.9-0.1-3-0.2c-1.1-0.5-1.9-1.2-2.3-2.3c-0.5-1.3-0.3-2.7,0-3.3c0.9-2,2.5-3,4.5-2.8c1.4,0.2,2.9,1,4,1.9
					c-0.7-1.2-1-2.3-1-3.1c0-3,2.4-4.3,3.9-4.3c1.8-0.1,3.3,0.5,4.3,1.6c0.9,1,1.2,2.3,1,3.9c-0.1,1-0.6,2-1,2.8
					c1.3-1,2.6-1.2,2.6-1.2c3.1-0.5,4.8,1.4,5.2,2.7c0.5,1.5,0.4,3.6-1.2,4.9c-1.7,1.4-3.6,0.9-5.1,0.2c2,2,3.3,4.3,2.5,6.4
					c-0.5,1.2-1.6,2.1-3.1,2.5C222.4,50.4,222,50.5,221.6,50.5z M218.4,43c-0.5,1.7-0.9,4.8,1.2,6.5c0.8,0.6,2,0.8,3.2,0.4
					c1.3-0.3,2.4-1.2,2.8-2.3c1-2.4-1.2-5.2-3.7-7.2c-0.4-0.3-0.6-0.4-0.6-0.5c-0.1-0.1-0.1-0.2,0-0.2c0.1-0.1,0.2-0.1,0.2,0
					c0.2,0.1,0.4,0.3,0.6,0.5c1.2,0.9,4,2.5,6.2,0.7c1.4-1.2,1.5-3.2,1-4.6c-0.4-1.2-2-2.9-4.8-2.5c0,0-2.1,0.3-3.5,2.1
					c-0.1,0.1-0.2,0.1-0.2,0c-0.1-0.1-0.1-0.2,0-0.2c0,0,1.5-2.1,1.7-4c0.2-1.5-0.1-2.7-1-3.6c-0.9-1-2.3-1.5-4-1.4
					c-1.4,0-3.5,1.2-3.5,4c0,1.1,0.6,2.8,1.9,4.1c0.3,0.3,0.5,0.5,0.5,0.5c0.1,0.1,0.1,0.2,0,0.2c-0.1,0.1-0.2,0.1-0.2,0
					c-0.2-0.2-0.4-0.3-0.5-0.5c-1-0.9-3.1-2.6-5.1-2.8c-1.8-0.2-3.3,0.8-4.1,2.6c-0.2,0.5-0.4,1.8,0,3.1c0.4,1,1.1,1.7,2.1,2.1
					c0,0,0,0,0,0c0,0,1.5,0.7,4.4-0.2c0.7-0.3,1.1-0.4,1.1-0.4c0.1,0,0.2,0,0.2,0.1c0,0.1,0,0.2-0.1,0.2c-0.4,0.2-0.8,0.3-1.1,0.5
					c-0.5,0.2-1.1,0.5-1.7,0.9c-1.1,0.7-1.8,1.8-2,3c-0.2,1.2,0.2,2.5,1.1,3.4l0.1,0.1c0.8,0.8,1.9,1.2,3,1.1
					c1.1-0.1,2.1-0.8,2.7-1.7c0.6-1.1,1.2-2.4,1.8-3.9c0.2-0.7,0.4-1.2,0.4-1.2c0-0.1,0.1-0.1,0.2-0.1c0.1,0,0.1,0.1,0.1,0.2
					C218.6,42.2,218.5,42.6,218.4,43z"/>
			</g>
			<g>
				
					<ellipse transform="matrix(0.9724 -0.2333 0.2333 0.9724 -2.9145 51.9283)" class="st58" cx="218.1" cy="38.3" rx="3.8" ry="3.5"/>
				<path d="M217.9,42c-0.7,0-1.4-0.2-2-0.5c-0.9-0.5-1.5-1.3-1.8-2.3s0-2,0.5-2.8c0.6-0.9,1.5-1.5,2.5-1.7c1-0.2,2.1-0.1,3,0.4
					c0.9,0.5,1.5,1.3,1.8,2.3c0.2,1,0,2-0.5,2.8c-0.6,0.9-1.5,1.5-2.5,1.7C218.6,42,218.3,42,217.9,42z M218.2,34.9
					c-0.3,0-0.6,0-0.9,0.1c-1,0.2-1.8,0.8-2.3,1.6c-0.5,0.8-0.7,1.7-0.5,2.6c0.2,0.9,0.8,1.6,1.6,2.1c0.8,0.5,1.8,0.6,2.7,0.4l0,0
					c1-0.2,1.8-0.8,2.3-1.6c0.5-0.8,0.7-1.7,0.5-2.6c-0.2-0.9-0.8-1.6-1.6-2.1C219.5,35.1,218.9,34.9,218.2,34.9z"/>
			</g>
		</g>
	</g>
	<g>
		<g>
			<path class="st59" d="M113.9,127.7c0,0-2.2,12.4,1.1,12.8c0,0,3.5,1.1,2.7-12.8H113.9z"/>
			<path d="M115.2,140.7c-0.1,0-0.2,0-0.2,0c-0.4,0-0.8-0.3-1-0.6c-1.9-2.5-0.3-11.9-0.2-12.3c0-0.1,0.1-0.2,0.2-0.2h3.8
				c0.1,0,0.2,0.1,0.2,0.2c0.5,8.9-0.7,11.8-1.8,12.6C115.7,140.6,115.4,140.7,115.2,140.7z M114.1,127.9c-0.2,1.2-1.5,9.7,0.2,11.9
				c0.2,0.3,0.5,0.5,0.8,0.5c0,0,0,0,0,0c0,0,0.4,0.1,0.8-0.3c0.9-0.7,2.2-3.2,1.7-12.1H114.1z"/>
		</g>
		<g>
			<path class="st59" d="M82.9,124.4c0,0-2.2,13.9,1.5,14.6c0,0,2.9,1.1,2.6-14.2L82.9,124.4z"/>
			<path d="M84.5,139.2c-0.1,0-0.1,0-0.2,0c-3.8-0.8-1.7-14.2-1.6-14.8c0-0.1,0.1-0.2,0.2-0.2l4,0.4c0.1,0,0.2,0.1,0.2,0.2
				c0.2,10.4-1,13.5-2,14.2C84.8,139.2,84.6,139.2,84.5,139.2z M83.1,124.6c-0.6,3.9-1.5,13.7,1.3,14.2c0,0,0,0,0,0
				c0,0,0.2,0.1,0.4-0.1c0.6-0.5,2.1-2.8,1.9-13.7L83.1,124.6z"/>
		</g>
		<g>
			<path class="st60" d="M119.7,76.8c0,0,10.6,10.8,29.5,0c0.5-0.3,0.6-0.8,0.3-1.3c-0.8-1.2-2-3.6-1.2-5.1c0.6-1.1,2-1.2,2.4-0.1
				c0,0,0.2,0.5,0.2,0.5c0,0,0.9,3.1,2.5,1.3c0.2-0.3,0.4-0.5,0.5-0.8c0.5-1,2.1-4.3,4.1-4.2c0.9,0,1.5,1.1,1,1.9l-2.6,4.1
				c0,0-0.4,1.1,2.6-0.4c0,0,3.4-1.9,3.7-0.1c0,0.3-0.1,0.7-0.3,0.9c-0.3,0.4-1,0.9-2.2,1.3c-0.7,0.3-1.1,0.3-2.1,0.8
				c-0.4,0.2-0.7,0.4-0.9,0.6c-0.3,0.3-0.1,0.8,0.4,0.8c0.9,0,2.9,0,4,0.9c0.6,0.5,0.7,1.4,0.3,2c-0.5,0.6-1.5,1.2-3.6,0.8
				c0,0-3.5-0.4-6.1-2.1c-0.1-0.1-0.2,0-0.3,0c-1.2,1.3-13.6,10.3-29.1,4.2L119.7,76.8z"/>
			<path d="M133.4,85.1c-3.3,0-6.9-0.5-10.8-2.1c0,0-0.1,0-0.1-0.1l-3-6c0-0.1,0-0.2,0.1-0.2c0.1-0.1,0.2,0,0.2,0c0,0,2.7,2.7,7.6,4
				c4.5,1.2,12,1.5,21.6-4.1c0.2-0.1,0.3-0.3,0.3-0.5c0-0.2,0-0.4-0.1-0.6c-0.8-1.3-2-3.7-1.2-5.3c0.3-0.7,0.9-1,1.6-1
				c0.5,0,0.9,0.4,1.1,0.9l0,0c0.1,0.4,0.2,0.5,0.2,0.5l0,0c0.1,0.4,0.6,1.6,1.2,1.7c0.3,0.1,0.6-0.1,1-0.5c0.2-0.2,0.4-0.5,0.5-0.8
				c0.6-1.3,2.2-4.3,4.2-4.3c0,0,0,0,0,0c0.5,0,0.9,0.3,1.2,0.7c0.2,0.5,0.2,1-0.1,1.5l-2.6,4c0,0,0,0.1,0,0.1
				c0.1,0,0.4,0.2,2.3-0.7c0.2-0.1,2.4-1.3,3.4-0.8c0.3,0.1,0.5,0.4,0.5,0.8c0,0.4-0.1,0.7-0.3,1.1c-0.4,0.5-1.1,0.9-2.2,1.4
				c-0.2,0.1-0.4,0.1-0.6,0.2c-0.4,0.1-0.8,0.2-1.5,0.6c-0.3,0.2-0.7,0.4-0.9,0.6c-0.1,0.1-0.1,0.3-0.1,0.3c0,0.1,0.1,0.2,0.3,0.2
				c0,0,0,0,0,0c0.9,0,3,0,4.1,1c0.7,0.5,0.8,1.5,0.3,2.2c-0.5,0.6-1.5,1.3-3.8,0.8c-0.2,0-3.6-0.4-6.1-2.1c0,0,0,0,0,0
				c-0.7,0.7-4.1,3.3-9.2,4.9C140.2,84.4,137.1,85.1,133.4,85.1z M122.8,82.7c8.1,3.1,15.2,2,19.7,0.6c5-1.6,8.4-4.1,9.1-4.8
				c0.1-0.1,0.3-0.2,0.5-0.1c2.5,1.7,5.9,2.1,6,2.1c1.7,0.3,2.9,0.1,3.5-0.7c0.4-0.5,0.3-1.3-0.3-1.7c-1.1-0.8-3.1-0.9-3.9-0.9
				c0,0,0,0,0,0c-0.3,0-0.5-0.2-0.6-0.4c-0.1-0.3,0-0.5,0.2-0.7c0.2-0.2,0.5-0.4,1-0.6c0.7-0.4,1.1-0.5,1.5-0.6
				c0.2-0.1,0.4-0.1,0.6-0.2c1.3-0.5,1.9-1,2.1-1.2c0.2-0.3,0.3-0.5,0.2-0.8c0-0.2-0.1-0.4-0.3-0.5c-0.7-0.4-2.5,0.4-3.1,0.8
				c-2,1-2.5,0.8-2.7,0.6c-0.2-0.2-0.2-0.4-0.1-0.5c0,0,0,0,0,0l2.6-4.1c0.2-0.3,0.2-0.8,0-1.1c-0.2-0.3-0.5-0.5-0.8-0.5
				c-1.8,0-3.5,3.2-3.9,4.1c-0.2,0.3-0.3,0.6-0.6,0.9c-0.4,0.5-0.9,0.7-1.3,0.6c-1-0.2-1.5-1.9-1.5-2c0,0,0,0,0,0c0,0,0-0.1-0.2-0.5
				l0,0c-0.1-0.4-0.4-0.6-0.8-0.6c-0.5,0-1,0.3-1.2,0.8c-0.7,1.5,0.5,3.7,1.2,4.9c0.2,0.3,0.2,0.6,0.1,0.8c-0.1,0.3-0.3,0.5-0.5,0.7
				c-9.8,5.6-17.3,5.4-21.9,4.1c-3.5-0.9-5.9-2.6-7-3.5L122.8,82.7z"/>
		</g>
		<g>
			<path class="st60" d="M89.1,77.7c0,0-19,7-25.4-10.7c0,0,3.9-4.2,2.8-5.3c0,0-1.2-1.9-3.2,2c-0.1,0.1-0.2,0.1-0.2,0
				c0-1.1-0.2-3.9-1.3-5.1c-1-1.2-2.9-0.6-3.1,1c-0.1,0.5,0.1,1.1,0.5,1.8c0.3,0.5,0.6,1,0.7,1.5c0.1,0.3,0.1,0.7,0,1
				c-0.1,0.6-0.7,0.9-1.3,0.7c-0.4-0.2-1.1-0.6-1.6-1.4c-0.5-0.8-1.4-1.5-2.4-1.5c-0.5,0-1,0-1.4,0.3c-0.8,0.6-0.7,1.9,0.2,2.3
				c1.5,0.8,4,2.2,3.5,2.7c0,0-3.6,0-4,2.4c-0.1,0.7,0.4,1.4,1.1,1.5c0.7,0.1,1.9-0.2,3.7-1.6c0.7-0.5,1.6-0.8,2.5-0.6
				c0.6,0.1,1.2,0.4,1.5,1.2c0,0,3.6,15,25.5,11.7L89.1,77.7z"/>
			<path d="M81.3,82c-2.6,0-5.1-0.3-7.3-0.9c-3.1-0.8-5.7-2.3-7.8-4.2c-3.5-3.2-4.5-6.9-4.6-7.1c-0.2-0.6-0.7-0.9-1.3-1.1
				c-0.8-0.2-1.6,0-2.3,0.6c-1.6,1.2-2.9,1.7-3.9,1.6c-0.4,0-0.7-0.2-1-0.6c-0.2-0.3-0.3-0.8-0.3-1.2c0.4-2.3,3.4-2.5,4.1-2.6
				c-0.1-0.3-1-1.1-3.5-2.4c-0.5-0.3-0.8-0.7-0.9-1.3c0-0.5,0.2-1,0.6-1.3c0.4-0.3,0.9-0.4,1.6-0.4c1,0.1,1.9,0.7,2.5,1.6
				c0.5,0.8,1.1,1.2,1.5,1.4c0.2,0.1,0.5,0.1,0.7,0c0.2-0.1,0.3-0.3,0.4-0.5c0-0.2,0-0.6,0-0.9c-0.1-0.5-0.3-1-0.7-1.5
				c-0.5-0.7-0.7-1.3-0.6-1.9c0.1-0.8,0.6-1.5,1.4-1.7c0.7-0.2,1.5,0,2,0.6c1,1.2,1.3,3.7,1.4,5c0.8-1.5,1.6-2.3,2.3-2.3
				c0.6,0,1,0.4,1,0.5c1.1,1.1-2.1,4.8-2.7,5.5c1.8,4.9,4.7,8.3,8.7,10.2c7.5,3.5,16.3,0.3,16.4,0.3c0.1,0,0.2,0,0.2,0.1
				c0.1,0.1,0.1,0.1,0,0.2l-1.8,3.6c0,0.1-0.1,0.1-0.1,0.1C85.2,81.9,83.2,82,81.3,82z M59.7,68.3c0.2,0,0.4,0,0.6,0.1
				c0.8,0.2,1.3,0.6,1.6,1.3c0,0,0,0,0,0c0,0,0.9,3.7,4.5,7c3.3,3,9.6,6.2,20.7,4.6l1.6-3.2c-1.9,0.6-9.6,2.7-16.2-0.5
				c-4.1-1.9-7.1-5.5-9-10.5c0-0.1,0-0.1,0-0.2c1.4-1.6,3.5-4.4,2.8-5.1c0,0,0,0,0,0c0,0-0.3-0.4-0.7-0.4c-0.4,0-1.2,0.5-2.1,2.4
				c-0.1,0.1-0.2,0.2-0.3,0.2c-0.1,0-0.2-0.1-0.2-0.3c0-1.1-0.2-3.8-1.3-5c-0.4-0.5-1-0.7-1.7-0.5c-0.6,0.2-1.1,0.7-1.1,1.4
				c-0.1,0.5,0.1,1.1,0.5,1.7c0.4,0.5,0.6,1.1,0.7,1.6c0.1,0.4,0.1,0.7,0,1c-0.1,0.3-0.3,0.6-0.6,0.8c-0.3,0.2-0.7,0.2-1,0
				c-0.5-0.2-1.1-0.7-1.6-1.5c-0.5-0.9-1.3-1.4-2.2-1.5c-0.5,0-1,0.1-1.3,0.3c-0.3,0.2-0.5,0.6-0.4,1c0,0.4,0.3,0.8,0.7,1
				c3.5,1.8,3.6,2.4,3.7,2.6c0,0.1,0,0.3-0.1,0.4c0,0-0.1,0.1-0.1,0.1c0,0-3.4,0-3.8,2.3c-0.1,0.3,0,0.6,0.2,0.9
				c0.2,0.2,0.4,0.4,0.7,0.4c0.6,0.1,1.8-0.1,3.6-1.5C58.3,68.5,59,68.3,59.7,68.3z"/>
		</g>
		<g>
			<path class="st61" d="M80.3,96c0,0,36.6-2.1,45.6,0.5c0.4,0.1,0.7,0.5,0.7,0.9c0,2.7,0.2,7.1,1.1,15c0,0,1.6,9.9,0.3,13.5
				c-0.1,0.3-0.4,0.6-0.7,0.8c-1.7,1.1-8.6,4.9-21.5,4.3l-1.3-12.7c-0.1-0.5-0.5-0.9-1-1l-4.2-0.2c-0.5,0-0.9,0.3-1,0.7
				c-0.6,1.8-2.2,6.7-1.9,10.2c0,0-14.9-0.3-19-1.2c-0.4-0.1-0.8-0.5-0.8-0.9c-0.3-2.5-0.7-10.5,0.9-19.6c0.4-2.5,1.1-5,1.9-7.5
				C81.3,93.3,80.3,96.2,80.3,96z"/>
			<path d="M108.7,131.2c-0.9,0-1.8,0-2.8-0.1c-0.1,0-0.2-0.1-0.2-0.2l-1.3-12.7c0-0.4-0.4-0.8-0.8-0.8l-4.2-0.2
				c-0.4,0-0.7,0.2-0.9,0.6c-0.7,1.9-2.2,6.7-1.9,10.1c0,0.1,0,0.1,0,0.1c0,0-0.1,0.1-0.1,0.1c-0.6,0-15-0.3-19-1.3
				c-0.5-0.1-0.9-0.5-0.9-1.1c-0.3-2.3-0.7-10.4,0.9-19.7c0.4-2.4,1-4.9,1.9-7.5l1.1-3.3c0,0,0-0.1,0-0.1c0,0,0-0.1,0-0.1l0,0
				c0-0.1,0.1-0.2,0.2-0.1c0.1,0,0.1,0.1,0.1,0.2l0,0c0,0,0,0,0,0.1c0,0,0,0,0,0.1l-0.1,0.2c3.4-0.2,36.8-1.9,45.4,0.5
				c0.5,0.1,0.8,0.6,0.8,1.1c0,2.6,0.1,6.9,1.1,15c0.1,0.4,1.6,9.9,0.2,13.6c-0.1,0.4-0.4,0.7-0.7,0.9
				C125.8,128,119.7,131.2,108.7,131.2z M106.1,130.8c12.6,0.6,19.4-3.1,21.2-4.2c0.3-0.2,0.5-0.4,0.6-0.7
				c1.3-3.6-0.3-13.3-0.3-13.4c-0.9-8.1-1.1-12.5-1.1-15c0-0.4-0.2-0.7-0.6-0.8c-8.7-2.5-43.1-0.6-45.5-0.5
				c-0.2,0.5-0.5,1.3-0.9,2.8c-0.9,2.5-1.5,5-1.9,7.4c-1.6,9.2-1.2,17.2-0.9,19.6c0,0.4,0.3,0.7,0.7,0.7c3.8,0.9,16.9,1.2,18.8,1.2
				c-0.2-3.5,1.3-8.2,1.9-10.1c0.2-0.5,0.7-0.9,1.2-0.8l4.2,0.2c0.6,0,1.1,0.5,1.2,1.1L106.1,130.8z"/>
		</g>
		<g>
			<path class="st62" d="M95.7,70.8c0,0-10.2,2.6-15.3,25.2l46.3,1.1c0,0-0.7-20.8-12.4-24.8L95.7,70.8z"/>
			<path d="M126.7,97.2C126.7,97.2,126.7,97.2,126.7,97.2l-46.3-1.1c-0.1,0-0.1,0-0.1-0.1c0,0,0-0.1,0-0.2c2.6-11.7,6.7-18,9.6-21.2
				c3.2-3.5,5.7-4.1,5.8-4.2c0,0,0,0,0.1,0l18.6,1.5c0,0,0,0,0,0c4.8,1.7,8.5,6.5,10.7,14c1.6,5.7,1.8,10.9,1.8,10.9
				c0,0.1,0,0.1-0.1,0.1C126.8,97.2,126.7,97.2,126.7,97.2z M80.6,95.8l45.9,1.1c-0.1-1-0.4-5.7-1.8-10.7
				c-1.5-5.2-4.5-11.7-10.4-13.8L95.7,71C95.4,71.1,93,71.8,90,75C87.2,78.2,83.2,84.3,80.6,95.8z"/>
		</g>
		<g>
			<g>
				<path class="st62" d="M82,134.1c0,0-13.7,1.7-18.1,6c-1.2,1.2-0.9,3.1,0.4,4c2.2,1.6,7.1,2.7,19,1.1c0,0,14.8-2,3.3-10.9
					c-0.6,0.1-1.4,0.2-2.4,0.2C83.3,134.4,82.6,134.3,82,134.1z"/>
				<path d="M73.3,146.2c-4.3,0-7.3-0.6-9.2-1.9c-0.7-0.5-1.1-1.3-1.2-2.1c-0.1-0.8,0.2-1.6,0.8-2.2c4.4-4.3,17.6-6,18.2-6.1
					c0,0,0,0,0.1,0c0.7,0.2,1.4,0.3,2.1,0.4c0.8,0,1.6,0,2.4-0.2c0.1,0,0.1,0,0.1,0c3.4,2.6,4.8,5,4.3,6.9c-0.9,3.4-7.5,4.3-7.7,4.4
					C79.4,145.9,76.1,146.2,73.3,146.2z M82,134.3c-0.8,0.1-13.8,1.8-18,6c-0.5,0.5-0.8,1.2-0.7,1.9c0.1,0.7,0.4,1.4,1.1,1.8
					c2.9,2,9.2,2.4,18.9,1.1c0.1,0,6.6-0.9,7.4-4.1c0.5-1.8-0.9-4-4.1-6.5c-0.8,0.1-1.6,0.2-2.4,0.2C83.4,134.6,82.7,134.5,82,134.3
					z"/>
			</g>
			<g>
				<path d="M75.6,143.8C75.6,143.8,75.6,143.8,75.6,143.8c-0.1,0-0.2-0.1-0.2-0.2l0.4-5.8c0-0.1,0.1-0.2,0.2-0.2
					c0.1,0,0.2,0.1,0.2,0.2l-0.4,5.8C75.8,143.7,75.7,143.8,75.6,143.8z"/>
			</g>
			<g>
				<path d="M73.4,143.6C73.4,143.6,73.4,143.6,73.4,143.6c-0.1,0-0.2-0.1-0.2-0.2l0.4-5c0-0.1,0.1-0.2,0.2-0.2
					c0.1,0,0.2,0.1,0.2,0.2l-0.4,5C73.6,143.5,73.5,143.6,73.4,143.6z"/>
			</g>
		</g>
		<g>
			<g>
				<path class="st62" d="M117.7,135.6c0,0,13.7,1.7,18.1,6c1.2,1.2,0.9,3.1-0.4,4c-2.2,1.6-7.1,2.7-19,1.1c0,0-14.8-2-3.3-10.9
					c0.6,0.1,1.4,0.2,2.4,0.2C116.4,135.9,117.1,135.7,117.7,135.6z"/>
				<path d="M126.4,147.7c-2.8,0-6.1-0.3-10-0.8c-0.3,0-6.8-1-7.7-4.4c-0.5-1.9,0.9-4.3,4.3-6.9c0,0,0.1,0,0.1,0
					c0.8,0.2,1.6,0.2,2.4,0.2c0.7,0,1.4-0.2,2.1-0.4c0,0,0,0,0.1,0c0.6,0.1,13.9,1.7,18.2,6.1c0.6,0.6,0.9,1.4,0.8,2.2
					c-0.1,0.8-0.5,1.6-1.2,2.1C133.7,147,130.7,147.7,126.4,147.7z M113.1,135.9c-3.2,2.5-4.6,4.7-4.1,6.5c0.9,3.2,7.4,4.1,7.4,4.1
					c9.6,1.3,16,1,18.9-1.1c0.6-0.4,1-1.1,1.1-1.8c0.1-0.7-0.2-1.4-0.7-1.9c-4.2-4.1-17.2-5.9-18-6c-0.7,0.2-1.5,0.3-2.2,0.4
					C114.7,136.1,113.9,136.1,113.1,135.9z"/>
			</g>
			<g>
				<path d="M124.1,145.2c-0.1,0-0.2-0.1-0.2-0.2l-0.4-5.8c0-0.1,0.1-0.2,0.2-0.2c0.1,0,0.2,0.1,0.2,0.2l0.4,5.8
					C124.3,145.1,124.2,145.2,124.1,145.2C124.1,145.2,124.1,145.2,124.1,145.2z"/>
			</g>
			<g>
				<path d="M126.3,145.1c-0.1,0-0.2-0.1-0.2-0.2l-0.4-5c0-0.1,0.1-0.2,0.2-0.2c0.1,0,0.2,0.1,0.2,0.2l0.4,5
					C126.5,145,126.4,145.1,126.3,145.1C126.3,145.1,126.3,145.1,126.3,145.1z"/>
			</g>
		</g>
		<g>
			<path class="st60" d="M118.2,74.5c0,0-24.7,7.4-37.9-8.2c0,0-8.2-8.5-8.2-23.4l39.2-19.5l28.1,24.8
				C139.5,48.2,134.9,66.6,118.2,74.5z"/>
			<path d="M104.8,76.4c-0.2,0-0.4,0-0.6,0c-4.6-0.1-8.8-0.8-12.5-2.1c-4.6-1.7-8.5-4.3-11.5-7.9c0,0-2.1-2.2-4.1-6.1
				c-1.9-3.7-4.1-9.6-4.1-17.4c0-0.1,0-0.1,0.1-0.2l39.2-19.5c0.1,0,0.1,0,0.2,0L139.6,48c0.1,0,0.1,0.1,0.1,0.2
				c0,0-1.2,4.7-4.4,10.2c-2.9,5.1-8.3,12.1-17,16.2c0,0,0,0,0,0C118.2,74.7,112.3,76.4,104.8,76.4z M72.3,43
				c0,7.6,2.2,13.5,4.1,17.1c2,3.9,4.1,6,4.1,6.1c6.7,8,16.6,9.8,23.7,9.9c7.5,0.1,13.6-1.6,14-1.7c8.6-4.1,13.9-11,16.8-16.1
				c2.9-5,4.1-9.3,4.3-10l-27.9-24.7L72.3,43z M118.2,74.5L118.2,74.5L118.2,74.5z"/>
		</g>
		<g>
			<path class="st63" d="M76.5,60.8c0,0-16.4-10.2-15.1-17.7c0,0,0.2-7.8,23.2-20.3c0,0,12.8-7.3,22.6-8c0,0-0.5-6.4,5.5-10.4
				c0.5-0.4,1.3,0,1.4,0.6c0.1,0.4,0.1,0.7-0.1,1.4c0,0.2-0.1,0.4-0.1,0.6l-0.7,5.4c0,0,5-5,7.8-4.6c0.5,0.1,0.8,0.4,0.9,0.9
				c0.1,0.6-0.1,1-1.4,3l-1.5,2.6c0,0,11.7,2.9,22.3,13.1s17,20.6,14.6,25.5c0,0-1.5,4-11.7,7.7c0,0-6,2.4-12.4,2.9
				c0,0,5.8-8,6.9-13.9c0,0-19.3-16.8-21.9-20.8c0,0-0.4,13.9,3.6,21.9c0,0-11.3-8.8-9.5-21.2c0,0-1.8,8.4-17.1,16.8
				c0,0,9.5-11.7,10.9-17.5c0,0-12.8,13.5-32.5,16.8C72.3,45.6,73.2,55.3,76.5,60.8z"/>
			<path d="M131.8,63.7c-0.1,0-0.1,0-0.2-0.1c0-0.1,0-0.1,0-0.2c0.1-0.1,5.8-8,6.9-13.7c-1.5-1.3-18.1-15.7-21.5-20.3
				c0,2.7,0.1,14.3,3.6,21.2c0,0.1,0,0.2,0,0.2c-0.1,0.1-0.2,0.1-0.2,0c0,0-2.9-2.2-5.5-6c-2.2-3.2-4.6-8-4.3-13.8
				c-0.4,0.9-1.1,2.3-2.3,3.9c-2.2,2.9-6.4,7.2-14.4,11.6c-0.1,0-0.2,0-0.2,0c-0.1-0.1-0.1-0.2,0-0.2c0.1-0.1,8.8-10.8,10.7-16.8
				c-1.1,1.1-4,3.8-8.4,6.7c-5.1,3.4-13.4,7.9-23.5,9.6c0.1,1.3,1.2,9.9,4.2,14.9c0,0.1,0,0.2,0,0.2c-0.1,0.1-0.2,0.1-0.2,0
				c0,0-4.2-2.6-8.1-6.1c-5.3-4.7-7.7-8.6-7.2-11.8c0-0.2,0.2-2.2,3-5.6c2.7-3.2,8.4-8.4,20.3-14.8c0.1-0.1,12.8-7.2,22.5-8
				c0-1.1,0.1-6.8,5.6-10.4c0.3-0.2,0.7-0.2,1-0.1c0.3,0.1,0.6,0.5,0.6,0.8c0.1,0.4,0.1,0.7-0.1,1.5c0,0.2-0.1,0.4-0.1,0.6l-0.6,4.9
				c1.2-1.2,5.2-4.6,7.6-4.3c0.6,0.1,1,0.5,1,1.1c0.1,0.7-0.1,1.1-1.4,3.1l-1.3,2.3c1.7,0.5,12.4,3.8,22.1,13.1
				C152.6,38.1,158.4,48.2,156,53c-0.1,0.3-1.7,4.2-11.8,7.8C144.2,60.8,138.1,63.1,131.8,63.7C131.8,63.7,131.8,63.7,131.8,63.7z
				 M116.8,28.6c0.1,0,0.1,0,0.2,0.1c2.5,3.9,21.7,20.6,21.9,20.8c0,0,0.1,0.1,0.1,0.2c-1,5.1-5.6,12-6.7,13.6
				c6.1-0.6,11.9-2.8,12-2.9c10-3.6,11.6-7.5,11.6-7.6c0,0,0,0,0,0c1.1-2.3,0.3-6-2.4-10.6c-2.6-4.5-6.8-9.6-12.1-14.7
				c-10.4-10.1-22.1-13.1-22.2-13.1c-0.1,0-0.1-0.1-0.1-0.1c0-0.1,0-0.1,0-0.2l1.5-2.6c1.3-2,1.4-2.3,1.3-2.9c0-0.4-0.3-0.7-0.7-0.7
				c-2.6-0.4-7.6,4.5-7.6,4.5c-0.1,0.1-0.1,0.1-0.2,0c-0.1,0-0.1-0.1-0.1-0.2l0.7-5.4c0-0.2,0.1-0.5,0.1-0.6c0.1-0.7,0.1-1,0.1-1.3
				c0-0.2-0.2-0.4-0.4-0.5c-0.2-0.1-0.5-0.1-0.7,0.1c-5.9,3.9-5.4,10.2-5.4,10.3c0,0,0,0.1,0,0.1c0,0-0.1,0.1-0.1,0.1
				c-9.7,0.7-22.4,7.9-22.5,8C62,35.2,61.6,43,61.6,43.1c0,0,0,0,0,0C60.5,49.5,73,58.2,76,60.2c-3-5.5-3.8-14.5-3.8-14.6
				c0-0.1,0.1-0.2,0.2-0.2c10.1-1.7,18.4-6.1,23.5-9.6c5.6-3.7,8.8-7.1,8.8-7.1c0.1-0.1,0.1-0.1,0.2,0c0.1,0,0.1,0.1,0.1,0.2
				c-1.3,5-8.3,14.2-10.4,16.8c7.3-4.2,11.3-8.3,13.4-11c2.3-3.1,2.8-5.2,2.8-5.2c0-0.1,0.1-0.2,0.2-0.1c0.1,0,0.2,0.1,0.1,0.2
				c-0.9,6.3,1.7,11.7,4,15.1c1.8,2.6,3.8,4.5,4.8,5.4c-3.6-8.1-3.3-21.1-3.3-21.2C116.7,28.7,116.7,28.7,116.8,28.6
				C116.8,28.6,116.8,28.6,116.8,28.6z"/>
		</g>
		<g>
			<path d="M104.7,68.8c-0.3,0-0.7,0-1.1,0c0,0-2.9,0-6.6-1.2c-3.4-1.1-8.2-3.6-11.7-8.7c-0.1-0.1,0-0.2,0-0.3c0.1-0.1,0.2,0,0.3,0
				c3.4,5,8.1,7.4,11.5,8.5c3.6,1.2,6.4,1.2,6.5,1.2c7.2,0.3,12.5-2.4,15.7-4.7c3.5-2.5,5.3-5.1,5.3-5.1c0.1-0.1,0.2-0.1,0.3,0
				c0.1,0.1,0.1,0.2,0,0.3c0,0-1.8,2.7-5.4,5.2C116.6,66.2,111.5,68.8,104.7,68.8z"/>
		</g>
		<g>
			<path d="M84.3,59c-0.8,0-1.7-0.1-2.5-0.4c-0.1,0-0.1-0.1-0.1-0.2c0-0.1,0.1-0.1,0.2-0.1c3.9,1.4,8.5-1.4,8.6-1.4
				c0.1-0.1,0.2,0,0.3,0.1c0.1,0.1,0,0.2-0.1,0.3C90.5,57.2,87.5,59,84.3,59z"/>
		</g>
		<g>
			<path d="M127.7,59.7c-4.2,0-5.9-4.9-5.9-4.9c0-0.1,0-0.2,0.1-0.2c0.1,0,0.2,0,0.2,0.1c0,0.1,1.8,5.3,6.4,4.6
				c0.1,0,0.2,0.1,0.2,0.2c0,0.1-0.1,0.2-0.2,0.2C128.2,59.7,127.9,59.7,127.7,59.7z"/>
		</g>
		<g>
			<path d="M101.7,60.1c-0.3,0-0.6-0.1-0.8-0.2c-1-0.7-0.7-2.7-0.7-2.7c0-0.1,0.1-0.2,0.2-0.2c0.1,0,0.2,0.1,0.2,0.2
				c0,0-0.2,1.8,0.6,2.4c0.4,0.3,0.9,0.2,1.7-0.2c0.1,0,0.2,0,0.2,0.1c0,0.1,0,0.2-0.1,0.2C102.5,60,102,60.1,101.7,60.1z"/>
		</g>
		<g>
			<path d="M112.1,47.3c-0.1,0-0.2-0.1-0.2-0.2c-0.5-3.3-3.8-4.2-3.9-4.2c-0.1,0-0.2-0.1-0.1-0.2c0-0.1,0.1-0.2,0.2-0.1
				c0,0,3.6,1,4.1,4.5C112.3,47.1,112.2,47.2,112.1,47.3C112.1,47.3,112.1,47.3,112.1,47.3z"/>
		</g>
		<g>
			<path d="M97.3,46.7C97.3,46.7,97.3,46.7,97.3,46.7c-0.2-0.1-0.2-0.2-0.2-0.3c1.5-2.6,4.3-3.2,4.4-3.2c0.1,0,0.2,0,0.2,0.1
				c0,0.1,0,0.2-0.1,0.2c0,0-2.8,0.6-4.1,3C97.4,46.7,97.4,46.7,97.3,46.7z"/>
		</g>
		<g>
			<path class="st1" d="M106.4,54.4c-1.1,0-2-1.7-2-3.8c0-2.1,0.9-3.8,2-3.8s2,1.7,2,3.8C108.4,52.7,107.6,54.4,106.4,54.4z"/>
			<path d="M106.4,46.9c1,0,1.8,1.6,1.8,3.6c0,2-0.8,3.6-1.8,3.6s-1.8-1.6-1.8-3.6C104.6,48.5,105.4,46.9,106.4,46.9 M106.4,46.5
				c-1.2,0-2.2,1.8-2.2,4c0,2.3,1,4,2.2,4s2.2-1.8,2.2-4C108.6,48.3,107.7,46.5,106.4,46.5L106.4,46.5z"/>
		</g>
		<g>
			<path class="st1" d="M98.5,53.4c-0.2,0-0.4,0-0.5-0.1c-0.5-0.2-0.8-0.8-0.9-1.5c-0.1-0.7,0.1-1.6,0.5-2.4
				c0.6-1.4,1.8-2.4,2.7-2.4c0.2,0,0.4,0,0.5,0.1c0.5,0.2,0.8,0.8,0.9,1.5c0.1,0.7-0.1,1.6-0.5,2.4C100.5,52.3,99.4,53.4,98.5,53.4
				C98.5,53.4,98.5,53.4,98.5,53.4z"/>
			<path d="M100.2,47c0.2,0,0.3,0,0.4,0.1c0.9,0.4,1.1,2.1,0.3,3.7c-0.6,1.4-1.7,2.3-2.5,2.3c-0.2,0-0.3,0-0.4-0.1
				c-0.9-0.4-1.1-2.1-0.3-3.7C98.3,48,99.3,47,100.2,47 M100.2,46.7c-1,0-2.2,1-2.9,2.6c-0.8,1.9-0.6,3.7,0.5,4.2
				c0.2,0.1,0.4,0.1,0.6,0.1c1,0,2.2-1,2.9-2.6c0.4-0.9,0.5-1.7,0.5-2.5c-0.1-0.8-0.4-1.4-1-1.7C100.6,46.7,100.4,46.7,100.2,46.7
				L100.2,46.7z"/>
		</g>
		<g>
			<path d="M106.4,51.7c-0.3,0-0.5-0.4-0.5-1c0-0.6,0.3-1,0.5-1s0.5,0.4,0.5,1C107,51.3,106.7,51.7,106.4,51.7z"/>
			<path d="M106.4,49.8c0.1,0,0.4,0.3,0.4,0.8c0,0.5-0.2,0.8-0.4,0.8s-0.4-0.3-0.4-0.8C106.1,50.1,106.3,49.8,106.4,49.8
				 M106.4,49.4c-0.4,0-0.7,0.5-0.7,1.2c0,0.7,0.3,1.2,0.7,1.2c0.4,0,0.7-0.5,0.7-1.2C107.2,50,106.8,49.4,106.4,49.4L106.4,49.4z"
				/>
		</g>
		<g>
			<path d="M99.1,51.2C99.1,51.2,99.1,51.1,99.1,51.2c-0.2-0.1-0.3-0.2-0.3-0.4c0-0.2,0-0.5,0.1-0.8c0.2-0.5,0.5-0.8,0.7-0.8
				c0,0,0.1,0,0.1,0c0.1,0,0.2,0.2,0.2,0.4c0,0.2,0,0.5-0.1,0.8C99.7,50.9,99.3,51.2,99.1,51.2C99.1,51.2,99.1,51.2,99.1,51.2z"/>
			<path d="M99.6,49.4C99.6,49.4,99.6,49.4,99.6,49.4c0.1,0,0.2,0.4,0.1,0.9c-0.2,0.4-0.4,0.7-0.6,0.7c0,0,0,0,0,0
				c0,0-0.1-0.1-0.1-0.2c0-0.2,0-0.4,0.1-0.7C99.2,49.7,99.5,49.4,99.6,49.4 M99.6,49.1c-0.3,0-0.7,0.4-0.9,0.9
				c-0.2,0.6-0.1,1.2,0.3,1.3c0,0,0.1,0,0.1,0c0.3,0,0.7-0.4,0.9-0.9c0.2-0.6,0.1-1.2-0.3-1.3C99.7,49.1,99.7,49.1,99.6,49.1
				L99.6,49.1z"/>
		</g>
	</g>
</g>
</svg>
