<svg id="Button_Large" data-name="Button Large" xmlns="http://www.w3.org/2000/svg" width="223" height="48" viewBox="0 0 223 48">
  <g id="Rectangle_119" data-name="Rectangle 119" fill="#fff">
    <path d="M 199 47 L 24 47 C 20.89458847045898 47 17.88258743286133 46.39202880859375 15.04767608642578 45.19293975830078 C 12.30897045135498 44.03458786010742 9.849146842956543 42.37606048583984 7.73655891418457 40.26344299316406 C 5.623940944671631 38.15085220336914 3.96541166305542 35.6910285949707 2.807058811187744 32.95232391357422 C 1.607970595359802 30.11741256713867 1 27.10541152954102 1 24 C 1 20.89458847045898 1.607970595359802 17.88258743286133 2.807058811187744 15.04767608642578 C 3.96541166305542 12.30897045135498 5.623940944671631 9.849146842956543 7.73655891418457 7.73655891418457 C 9.849146842956543 5.623940944671631 12.30897045135498 3.96541166305542 15.04767608642578 2.807058811187744 C 17.88258743286133 1.607970595359802 20.89458847045898 1 24 1 L 199 1 C 202.1054077148438 1 205.1174468994141 1.607970595359802 207.9523468017578 2.807058811187744 C 210.6910247802734 3.96541166305542 213.1508483886719 5.623940944671631 215.2634735107422 7.73655891418457 C 217.3760528564453 9.849146842956543 219.0345916748047 12.30897045135498 220.1929779052734 15.04767608642578 C 221.3920288085938 17.88258743286133 222 20.89458847045898 222 24 C 222 27.10541152954102 221.3920288085938 30.11741256713867 220.1929779052734 32.95232391357422 C 219.0345916748047 35.6910285949707 217.3760528564453 38.15085220336914 215.2634735107422 40.26344299316406 C 213.1508483886719 42.37606048583984 210.6910247802734 44.03458786010742 207.9523468017578 45.19293975830078 C 205.1174468994141 46.39202880859375 202.1054077148438 47 199 47 Z" stroke="none"/>
    <path d="M 24 2 C 21.02914428710938 2 18.14820861816406 2.581413269042969 15.43721008300781 3.728057861328125 C 12.81770324707031 4.83599853515625 10.46473693847656 6.422557830810547 8.443649291992188 8.443645477294922 C 6.422561645507812 10.46473693847656 4.83599853515625 12.81770706176758 3.728057861328125 15.43723678588867 C 2.581405639648438 18.14820671081543 2 21.02914619445801 2 24 C 2 26.97085380554199 2.581405639648438 29.85179328918457 3.728057861328125 32.56276702880859 C 4.83599853515625 35.18229293823242 6.422561645507812 37.53526306152344 8.443649291992188 39.55635070800781 C 10.46473693847656 41.57744216918945 12.81770324707031 43.16400146484375 15.43721008300781 44.27194213867188 C 18.14820861816406 45.41858673095703 21.02914428710938 46 24 46 L 199 46 C 201.9708557128906 46 204.8517913818359 45.41858673095703 207.5627593994141 44.27194213867188 C 210.1822967529297 43.16400146484375 212.5352630615234 41.57744216918945 214.5563507080078 39.55635070800781 C 216.5774383544922 37.53526306152344 218.1640014648438 35.18229293823242 219.2719421386719 32.56276702880859 C 220.4185943603516 29.85179328918457 221 26.97085380554199 221 24 C 221 21.02914619445801 220.4185943603516 18.14820671081543 219.2719421386719 15.43723678588867 C 218.1640014648438 12.81770706176758 216.5774383544922 10.46473693847656 214.5563507080078 8.443645477294922 C 212.5352630615234 6.422557830810547 210.1822967529297 4.83599853515625 207.5627593994141 3.728057861328125 C 204.8517913818359 2.581413269042969 201.9708557128906 2 199 2 L 24 2 M 24 0 L 199 0 C 212.2548217773438 0 223 10.74517822265625 223 24 C 223 37.25482177734375 212.2548217773438 48 199 48 L 24 48 C 10.74514770507812 48 0 37.25482177734375 0 24 C 0 10.74517822265625 10.74514770507812 0 24 0 Z" stroke="none" fill="gold"/>
  </g>
</svg>
