<svg xmlns="http://www.w3.org/2000/svg" width="59.904" height="69.191" viewBox="0 0 59.904 69.191">
  <g id="Assesment_icon" data-name="Assesment icon" transform="translate(-1192.39 -230.789)">
    <g id="Objects" transform="translate(1193.39 231.789)">
      <g id="Group_58" data-name="Group 58" transform="translate(0)">
        <g id="Group_56" data-name="Group 56">
          <path id="Path_32" data-name="Path 32" d="M1251.294,246.638v9a44.275,44.275,0,0,1-9.506,28.324A50.323,50.323,0,0,1,1224,298.6a3.752,3.752,0,0,1-3.309,0,50.318,50.318,0,0,1-17.793-14.631,44.279,44.279,0,0,1-9.5-28.324v-9a3.727,3.727,0,0,1,3.377-3.725c4.648-.451,16.171-2.314,22.761-9.849a3.74,3.74,0,0,1,5.628,0c6.59,7.534,18.113,9.4,22.76,9.849a3.727,3.727,0,0,1,3.377,3.724Z" transform="translate(-1193.39 -231.789)" fill="#063e89" stroke="gold" stroke-width="2"/>
        </g>
        <g id="Group_57" data-name="Group 57" transform="translate(14.055 18.038)">
          <path id="Path_33" data-name="Path 33" d="M1396.021,466.217l-5.8,6.3.988,8.5a1.379,1.379,0,0,1-1.944,1.412l-7.78-3.567-7.78,3.567a1.379,1.379,0,0,1-1.944-1.412l.987-8.5-5.8-6.3a1.379,1.379,0,0,1,.743-2.286l8.39-1.687,4.2-7.458a1.379,1.379,0,0,1,2.4,0l4.2,7.458,8.39,1.687A1.379,1.379,0,0,1,1396.021,466.217Z" transform="translate(-1366.592 -454.083)" fill="gold" stroke="gold" stroke-width="2"/>
        </g>
      </g>
    </g>
  </g>
</svg>
