<svg xmlns="http://www.w3.org/2000/svg" xmlns:xlink="http://www.w3.org/1999/xlink" width="112" height="112" viewBox="0 0 112 112">
  <defs>
    <filter id="Rectangle_1014" x="0" y="0" width="112" height="112" filterUnits="userSpaceOnUse">
      <feOffset dy="3" input="SourceAlpha"/>
      <feGaussianBlur stdDeviation="3" result="blur"/>
      <feFlood flood-opacity="0.122"/>
      <feComposite operator="in" in2="blur"/>
      <feComposite in="SourceGraphic"/>
    </filter>
  </defs>
  <g id="Group_67" data-name="Group 67" transform="translate(9 -48)">
    <g id="Explore" transform="translate(0 -20)">
      <g transform="matrix(1, 0, 0, 1, -9, 68)" filter="url(#Rectangle_1014)">
        <rect id="Rectangle_1014-2" data-name="Rectangle 1014" width="94" height="94" transform="translate(9 6)" fill="#fff"/>
      </g>
      <rect id="Rectangle_1015" data-name="Rectangle 1015" width="94" height="1" transform="translate(0 167)" fill="#f1f9ff"/>
    </g>
    <g id="nutrition_icon" data-name="nutrition icon" transform="translate(18.36 72.355)">
      <path id="Path_34" data-name="Path 34" d="M68.938,15.371A3.063,3.063,0,1,0,72,12.309,3.066,3.066,0,0,0,68.938,15.371Zm5.193,0A2.13,2.13,0,1,1,72,13.241,2.133,2.133,0,0,1,74.131,15.371Z" transform="translate(-31.47 -1.233)" fill="#1a4255"/>
      <path id="Path_35" data-name="Path 35" d="M17.922,15.371a3.063,3.063,0,1,0,3.063-3.063A3.066,3.066,0,0,0,17.922,15.371Zm5.193,0a2.13,2.13,0,1,1-2.13-2.13A2.133,2.133,0,0,1,23.115,15.371Z" transform="translate(-4.234 -1.233)" fill="#1a4255"/>
      <path id="Path_36" data-name="Path 36" d="M39.922,42a3.063,3.063,0,1,0,3.063-3.063A3.066,3.066,0,0,0,39.922,42Zm5.191,0a2.13,2.13,0,1,1-2.13-2.13A2.133,2.133,0,0,1,45.113,42Z" transform="translate(-15.98 -15.451)" fill="#1a4255"/>
      <path id="Path_37" data-name="Path 37" d="M49.111,16.118a6.118,6.118,0,1,0-6.118,6.118A6.125,6.125,0,0,0,49.111,16.118Zm-6.118,5.188a5.187,5.187,0,1,1,5.186-5.188A5.191,5.191,0,0,1,42.993,21.306Z" transform="translate(-14.353)" fill="#1a4255"/>
      <path id="Path_38" data-name="Path 38" d="M46.576,16.711a2.99,2.99,0,1,0,2.99,2.99A2.993,2.993,0,0,0,46.576,16.711Zm0,5.047A2.058,2.058,0,1,1,48.633,19.7,2.06,2.06,0,0,1,46.576,21.758Z" transform="translate(-17.936 -3.583)" fill="#1a4255"/>
      <path id="Path_39" data-name="Path 39" d="M16.85,37.631A6.847,6.847,0,0,0,21.7,35.625a.466.466,0,0,0,0-.659l-9.046-9.048a.466.466,0,0,0-.659,0A6.861,6.861,0,0,0,16.85,37.631ZM12.34,26.919,20.7,35.281A5.931,5.931,0,0,1,12.34,26.92Z" transform="translate(0 -8.425)" fill="#1a4255"/>
      <path id="Path_40" data-name="Path 40" d="M17.871,41.26a.466.466,0,0,0,.659,0l.87-.87a.466.466,0,1,0-.659-.659l-.87.87a.466.466,0,0,0,0,.659Z" transform="translate(-4.134 -15.799)" fill="#1a4255"/>
      <path id="Path_41" data-name="Path 41" d="M24.427,44.035a.465.465,0,0,0,.466-.466V42.338a.466.466,0,0,0-.932,0v1.231A.467.467,0,0,0,24.427,44.035Z" transform="translate(-7.459 -17.015)" fill="#1a4255"/>
      <path id="Path_42" data-name="Path 42" d="M16.847,35.7a.465.465,0,0,0-.466-.466H15.15a.466.466,0,0,0,0,.932H16.38A.466.466,0,0,0,16.847,35.7Z" transform="translate(-2.506 -13.469)" fill="#1a4255"/>
      <path id="Path_43" data-name="Path 43" d="M46.824,42.227H43.669a2.768,2.768,0,0,0,.555-.852,2.671,2.671,0,0,0,.2-1.072A2.858,2.858,0,0,0,47.29,37.66a2.8,2.8,0,0,0-.584-1.879,2.8,2.8,0,0,0-3.869-3.869,2.792,2.792,0,0,0-1.879-.584,2.856,2.856,0,0,0-2.642,2.866,2.655,2.655,0,0,0-1.074.2,2.99,2.99,0,0,0-1.8,2.669,2.7,2.7,0,0,0-2.629,3.625l.5,1.539H10.466a.465.465,0,0,0-.466.466,19.251,19.251,0,0,0,8.279,15.9.471.471,0,0,0,.264.082h20.2a.471.471,0,0,0,.264-.082,19.254,19.254,0,0,0,8.279-15.9.465.465,0,0,0-.466-.466ZM33.7,40.4a1.777,1.777,0,0,1,2.1-2.356.467.467,0,0,0,.572-.453V37.17a2.054,2.054,0,0,1,1.216-1.914,1.741,1.741,0,0,1,1.082-.08.467.467,0,0,0,.572-.453v-.492a1.953,1.953,0,0,1,1.763-1.972,1.889,1.889,0,0,1,1.46.579.467.467,0,0,0,.645.029A1.868,1.868,0,0,1,45.75,35.5a.467.467,0,0,0,.029.645,1.874,1.874,0,0,1,.579,1.46,1.951,1.951,0,0,1-1.972,1.763h-.492a.464.464,0,0,0-.364.177.473.473,0,0,0-.089.4,1.741,1.741,0,0,1-.08,1.082,1.991,1.991,0,0,1-1.874,1.205H37.05L42.3,36.975a.466.466,0,1,0-.659-.659l-5.912,5.911h-1.44Zm4.9,17.34H18.689a18.309,18.309,0,0,1-7.751-14.583H46.353A18.312,18.312,0,0,1,38.6,57.742Z" transform="translate(-0.005 -11.383)" fill="#1a4255"/>
    </g>
  </g>
</svg>
